<?xml version="1.0" encoding="UTF-8" standalone="no"?>
<!-- Created with Inkscape (http://www.inkscape.org/) -->

<svg
   width="512"
   height="512"
   viewBox="0 0 512 512"
   version="1.1"
   id="svg1"
   xml:space="preserve"
   inkscape:version="1.3.2 (091e20e, 2023-11-25, custom)"
   sodipodi:docname="rat.svg"
   xmlns:inkscape="http://www.inkscape.org/namespaces/inkscape"
   xmlns:sodipodi="http://sodipodi.sourceforge.net/DTD/sodipodi-0.dtd"
   xmlns="http://www.w3.org/2000/svg"
   xmlns:svg="http://www.w3.org/2000/svg"><sodipodi:namedview
     id="namedview1"
     bordercolor="#000000"
     borderopacity="0.25"
     inkscape:showpageshadow="2"
     inkscape:pageopacity="0.0"
     inkscape:pagecheckerboard="0"
     inkscape:deskcolor="#d1d1d1"
     inkscape:document-units="px"
     inkscape:zoom="1.5878906"
     inkscape:cx="203.09963"
     inkscape:cy="240.25584"
     inkscape:window-width="1920"
     inkscape:window-height="1009"
     inkscape:window-x="-8"
     inkscape:window-y="-8"
     inkscape:window-maximized="1"
     inkscape:current-layer="layer1" /><defs
     id="defs1"><inkscape:path-effect
       effect="powerstroke"
       id="path-effect25"
       is_visible="true"
       lpeversion="1.3"
       scale_width="1"
       interpolator_type="CentripetalCatmullRom"
       interpolator_beta="0.2"
       start_linecap_type="zerowidth"
       end_linecap_type="zerowidth"
       offset_points="15.589362,5.3430926"
       linejoin_type="round"
       miter_limit="4"
       not_jump="false"
       sort_points="true"
       message="&lt;b&gt;Ctrl + click&lt;/b&gt; on existing node and move it" /><inkscape:path-effect
       effect="powerstroke"
       id="path-effect4"
       is_visible="true"
       lpeversion="1.3"
       scale_width="1"
       interpolator_type="CentripetalCatmullRom"
       interpolator_beta="0.2"
       start_linecap_type="zerowidth"
       end_linecap_type="zerowidth"
       offset_points="0.34934915,2.3751803 | 0.82124799,2.1491343 | 1.4694523,1.068328"
       linejoin_type="round"
       miter_limit="4"
       not_jump="false"
       sort_points="true"
       message="&lt;b&gt;Ctrl + click&lt;/b&gt; on existing node and move it" /><inkscape:path-effect
       effect="powerstroke"
       id="path-effect3"
       is_visible="true"
       lpeversion="1.3"
       scale_width="1"
       interpolator_type="CentripetalCatmullRom"
       interpolator_beta="0.2"
       start_linecap_type="zerowidth"
       end_linecap_type="zerowidth"
       offset_points="0.20585331,2.7983144 | 2.4285895,2.267797 | 4.580152,1.3947724"
       linejoin_type="round"
       miter_limit="4"
       not_jump="false"
       sort_points="true"
       message="&lt;b&gt;Ctrl + click&lt;/b&gt; on existing node and move it" /><inkscape:path-effect
       effect="powerstroke"
       id="path-effect4-7"
       is_visible="true"
       lpeversion="1.3"
       scale_width="1"
       interpolator_type="CentripetalCatmullRom"
       interpolator_beta="0.2"
       start_linecap_type="zerowidth"
       end_linecap_type="zerowidth"
       offset_points="0.34934915,2.3751803 | 0.82124799,2.1491343 | 1.4694523,1.068328"
       linejoin_type="round"
       miter_limit="4"
       not_jump="false"
       sort_points="true"
       message="&lt;b&gt;Ctrl + click&lt;/b&gt; on existing node and move it" /><inkscape:path-effect
       effect="powerstroke"
       id="path-effect4-3"
       is_visible="true"
       lpeversion="1.3"
       scale_width="1"
       interpolator_type="CentripetalCatmullRom"
       interpolator_beta="0.2"
       start_linecap_type="zerowidth"
       end_linecap_type="zerowidth"
       offset_points="0.46634928,2.3751803 | 0.85411667,2.5600796 | 1.3242522,1.5173302"
       linejoin_type="round"
       miter_limit="4"
       not_jump="false"
       sort_points="true"
       message="&lt;b&gt;Ctrl + click&lt;/b&gt; on existing node and move it" /><inkscape:path-effect
       effect="powerstroke"
       id="path-effect4-3-8"
       is_visible="true"
       lpeversion="1.3"
       scale_width="1"
       interpolator_type="CentripetalCatmullRom"
       interpolator_beta="0.2"
       start_linecap_type="zerowidth"
       end_linecap_type="zerowidth"
       offset_points="0.46634928,2.3751803 | 0.85411667,2.5600796 | 1.3242522,1.5173302"
       linejoin_type="round"
       miter_limit="4"
       not_jump="false"
       sort_points="true"
       message="&lt;b&gt;Ctrl + click&lt;/b&gt; on existing node and move it" /><inkscape:path-effect
       effect="powerstroke"
       id="path-effect4-3-8-8"
       is_visible="true"
       lpeversion="1.3"
       scale_width="1"
       interpolator_type="CentripetalCatmullRom"
       interpolator_beta="0.2"
       start_linecap_type="zerowidth"
       end_linecap_type="zerowidth"
       offset_points="0.46634928,2.3751803 | 0.81896688,2.1730969 | 1.3202301,1.194056"
       linejoin_type="round"
       miter_limit="4"
       not_jump="false"
       sort_points="true"
       message="&lt;b&gt;Ctrl + click&lt;/b&gt; on existing node and move it" /><inkscape:path-effect
       effect="powerstroke"
       id="path-effect4-3-8-8-6"
       is_visible="true"
       lpeversion="1.3"
       scale_width="1"
       interpolator_type="CentripetalCatmullRom"
       interpolator_beta="0.2"
       start_linecap_type="zerowidth"
       end_linecap_type="zerowidth"
       offset_points="0,2.3751803 | 0,2.1730969 | 0.39224042,1.2733769"
       linejoin_type="round"
       miter_limit="4"
       not_jump="false"
       sort_points="true"
       message="&lt;b&gt;Ctrl + click&lt;/b&gt; on existing node and move it" /><inkscape:path-effect
       effect="powerstroke"
       id="path-effect4-3-8-8-6-5"
       is_visible="true"
       lpeversion="1.3"
       scale_width="1"
       interpolator_type="CentripetalCatmullRom"
       interpolator_beta="0.2"
       start_linecap_type="zerowidth"
       end_linecap_type="zerowidth"
       offset_points="0,2.3751803 | 0.24633374,1.9406111 | 0.38536554,1.405996"
       linejoin_type="round"
       miter_limit="4"
       not_jump="false"
       sort_points="true"
       message="&lt;b&gt;Ctrl + click&lt;/b&gt; on existing node and move it" /><inkscape:path-effect
       effect="powerstroke"
       id="path-effect4-3-8-8-6-5-4"
       is_visible="true"
       lpeversion="1.3"
       scale_width="1"
       interpolator_type="CentripetalCatmullRom"
       interpolator_beta="0.2"
       start_linecap_type="zerowidth"
       end_linecap_type="zerowidth"
       offset_points="0,2.1301088 | 0.24018669,2.163775 | 0.44578055,1.3551149"
       linejoin_type="round"
       miter_limit="4"
       not_jump="false"
       sort_points="true"
       message="&lt;b&gt;Ctrl + click&lt;/b&gt; on existing node and move it" /><inkscape:path-effect
       effect="powerstroke"
       id="path-effect4-3-8-8-6-5-4-3"
       is_visible="true"
       lpeversion="1.3"
       scale_width="1"
       interpolator_type="CentripetalCatmullRom"
       interpolator_beta="0.2"
       start_linecap_type="zerowidth"
       end_linecap_type="zerowidth"
       offset_points="0,2.1301088 | 0.15713222,2.058272 | 0.44578055,1.3551149"
       linejoin_type="round"
       miter_limit="4"
       not_jump="false"
       sort_points="true"
       message="&lt;b&gt;Ctrl + click&lt;/b&gt; on existing node and move it" /><inkscape:path-effect
       effect="powerstroke"
       id="path-effect3-3"
       is_visible="true"
       lpeversion="1.3"
       scale_width="1"
       interpolator_type="CentripetalCatmullRom"
       interpolator_beta="0.2"
       start_linecap_type="zerowidth"
       end_linecap_type="zerowidth"
       offset_points="0.31496685,3.2132093 | 2.4301678,3.4468193 | 4.2294981,2.4978447"
       linejoin_type="round"
       miter_limit="4"
       not_jump="false"
       sort_points="true"
       message="&lt;b&gt;Ctrl + click&lt;/b&gt; on existing node and move it" /><inkscape:path-effect
       effect="powerstroke"
       id="path-effect4-3-7"
       is_visible="true"
       lpeversion="1.3"
       scale_width="1"
       interpolator_type="CentripetalCatmullRom"
       interpolator_beta="0.2"
       start_linecap_type="zerowidth"
       end_linecap_type="zerowidth"
       offset_points="0.46184817,2.0933894 | 0.85997264,2.0584903 | 1.3290411,1.5795215"
       linejoin_type="round"
       miter_limit="4"
       not_jump="false"
       sort_points="true"
       message="&lt;b&gt;Ctrl + click&lt;/b&gt; on existing node and move it" /><inkscape:path-effect
       effect="powerstroke"
       id="path-effect4-3-7-3"
       is_visible="true"
       lpeversion="1.3"
       scale_width="1"
       interpolator_type="CentripetalCatmullRom"
       interpolator_beta="0.2"
       start_linecap_type="zerowidth"
       end_linecap_type="zerowidth"
       offset_points="0.46184817,2.0933894 | 0.85997264,2.0584903 | 1.3290411,1.5795215"
       linejoin_type="round"
       miter_limit="4"
       not_jump="false"
       sort_points="true"
       message="&lt;b&gt;Ctrl + click&lt;/b&gt; on existing node and move it" /><inkscape:path-effect
       effect="powerstroke"
       id="path-effect4-3-7-1"
       is_visible="true"
       lpeversion="1.3"
       scale_width="1"
       interpolator_type="CentripetalCatmullRom"
       interpolator_beta="0.2"
       start_linecap_type="zerowidth"
       end_linecap_type="zerowidth"
       offset_points="0.22362504,2.2472241 | 0.85997264,2.0584903 | 1.3290411,1.5795215"
       linejoin_type="round"
       miter_limit="4"
       not_jump="false"
       sort_points="true"
       message="&lt;b&gt;Ctrl + click&lt;/b&gt; on existing node and move it" /><inkscape:path-effect
       effect="powerstroke"
       id="path-effect4-3-7-4"
       is_visible="true"
       lpeversion="1.3"
       scale_width="1"
       interpolator_type="CentripetalCatmullRom"
       interpolator_beta="0.2"
       start_linecap_type="zerowidth"
       end_linecap_type="zerowidth"
       offset_points="0.49202727,3.36023 | 0.90479494,2.4479421 | 1.3290411,1.5795215"
       linejoin_type="round"
       miter_limit="4"
       not_jump="false"
       sort_points="true"
       message="&lt;b&gt;Ctrl + click&lt;/b&gt; on existing node and move it" /><inkscape:path-effect
       effect="powerstroke"
       id="path-effect4-3-7-45"
       is_visible="true"
       lpeversion="1.3"
       scale_width="1"
       interpolator_type="CentripetalCatmullRom"
       interpolator_beta="0.2"
       start_linecap_type="zerowidth"
       end_linecap_type="zerowidth"
       offset_points="0.35730869,3.090848 | 0.85800477,2.4826367 | 1.3290411,1.5795215"
       linejoin_type="round"
       miter_limit="4"
       not_jump="false"
       sort_points="true"
       message="&lt;b&gt;Ctrl + click&lt;/b&gt; on existing node and move it" /><inkscape:path-effect
       effect="powerstroke"
       id="path-effect4-3-7-32"
       is_visible="true"
       lpeversion="1.3"
       scale_width="1"
       interpolator_type="CentripetalCatmullRom"
       interpolator_beta="0.2"
       start_linecap_type="zerowidth"
       end_linecap_type="zerowidth"
       offset_points="0.46184817,2.0933894 | 0.7881062,2.9940775 | 1.327346,1.894359"
       linejoin_type="round"
       miter_limit="4"
       not_jump="false"
       sort_points="true"
       message="&lt;b&gt;Ctrl + click&lt;/b&gt; on existing node and move it" /><inkscape:path-effect
       effect="powerstroke"
       id="path-effect4-3-7-8"
       is_visible="true"
       lpeversion="1.3"
       scale_width="1"
       interpolator_type="CentripetalCatmullRom"
       interpolator_beta="0.2"
       start_linecap_type="zerowidth"
       end_linecap_type="zerowidth"
       offset_points="0.18423283,2.8346969 | 0.85103741,2.5348615 | 1.3290411,1.5795215"
       linejoin_type="round"
       miter_limit="4"
       not_jump="false"
       sort_points="true"
       message="&lt;b&gt;Ctrl + click&lt;/b&gt; on existing node and move it" /><inkscape:path-effect
       effect="powerstroke"
       id="path-effect4-3-7-11"
       is_visible="true"
       lpeversion="1.3"
       scale_width="1"
       interpolator_type="CentripetalCatmullRom"
       interpolator_beta="0.2"
       start_linecap_type="zerowidth"
       end_linecap_type="zerowidth"
       offset_points="0,2.9074222 | 0.85997264,2.0584903 | 1.3324628,1.1681702"
       linejoin_type="round"
       miter_limit="4"
       not_jump="false"
       sort_points="true"
       message="&lt;b&gt;Ctrl + click&lt;/b&gt; on existing node and move it" /><inkscape:path-effect
       effect="powerstroke"
       id="path-effect4-3-7-44"
       is_visible="true"
       lpeversion="1.3"
       scale_width="1"
       interpolator_type="CentripetalCatmullRom"
       interpolator_beta="0.2"
       start_linecap_type="zerowidth"
       end_linecap_type="zerowidth"
       offset_points="0.45035563,3.1890979 | 0.86566193,2.7394973 | 1.3290411,1.5795215"
       linejoin_type="round"
       miter_limit="4"
       not_jump="false"
       sort_points="true"
       message="&lt;b&gt;Ctrl + click&lt;/b&gt; on existing node and move it" /><inkscape:path-effect
       effect="powerstroke"
       id="path-effect4-3-7-88"
       is_visible="true"
       lpeversion="1.3"
       scale_width="1"
       interpolator_type="CentripetalCatmullRom"
       interpolator_beta="0.2"
       start_linecap_type="zerowidth"
       end_linecap_type="zerowidth"
       offset_points="0.13220341,1.9573884 | 0.85997264,2.0584903 | 1.3290411,1.5795215"
       linejoin_type="round"
       miter_limit="4"
       not_jump="false"
       sort_points="true"
       message="&lt;b&gt;Ctrl + click&lt;/b&gt; on existing node and move it" /><inkscape:path-effect
       effect="powerstroke"
       id="path-effect4-3-7-88-6"
       is_visible="true"
       lpeversion="1.3"
       scale_width="1"
       interpolator_type="CentripetalCatmullRom"
       interpolator_beta="0.2"
       start_linecap_type="zerowidth"
       end_linecap_type="zerowidth"
       offset_points="0,2.0933894 | 0,2.0584903 | 0.40097006,1.2988464"
       linejoin_type="round"
       miter_limit="4"
       not_jump="false"
       sort_points="true"
       message="&lt;b&gt;Ctrl + click&lt;/b&gt; on existing node and move it" /><inkscape:path-effect
       effect="powerstroke"
       id="path-effect4-3-7-88-6-1"
       is_visible="true"
       lpeversion="1.3"
       scale_width="1"
       interpolator_type="CentripetalCatmullRom"
       interpolator_beta="0.2"
       start_linecap_type="zerowidth"
       end_linecap_type="zerowidth"
       offset_points="0,2.0933894 | 0,2.0584903 | 0.40097006,1.2988464"
       linejoin_type="round"
       miter_limit="4"
       not_jump="false"
       sort_points="true"
       message="&lt;b&gt;Ctrl + click&lt;/b&gt; on existing node and move it" /><inkscape:path-effect
       effect="powerstroke"
       id="path-effect4-3-7-88-6-2"
       is_visible="true"
       lpeversion="1.3"
       scale_width="1"
       interpolator_type="CentripetalCatmullRom"
       interpolator_beta="0.2"
       start_linecap_type="zerowidth"
       end_linecap_type="zerowidth"
       offset_points="0,2.0933894 | 0,2.0584903 | 0.40097006,1.2988464"
       linejoin_type="round"
       miter_limit="4"
       not_jump="false"
       sort_points="true"
       message="&lt;b&gt;Ctrl + click&lt;/b&gt; on existing node and move it" /><inkscape:path-effect
       effect="powerstroke"
       id="path-effect4-3-7-88-6-3"
       is_visible="true"
       lpeversion="1.3"
       scale_width="1"
       interpolator_type="CentripetalCatmullRom"
       interpolator_beta="0.2"
       start_linecap_type="zerowidth"
       end_linecap_type="zerowidth"
       offset_points="0,2.0933894 | 0,2.0584903 | 0.40097006,1.2988464"
       linejoin_type="round"
       miter_limit="4"
       not_jump="false"
       sort_points="true"
       message="&lt;b&gt;Ctrl + click&lt;/b&gt; on existing node and move it" /><inkscape:path-effect
       effect="powerstroke"
       id="path-effect4-3-7-88-6-4"
       is_visible="true"
       lpeversion="1.3"
       scale_width="1"
       interpolator_type="CentripetalCatmullRom"
       interpolator_beta="0.2"
       start_linecap_type="zerowidth"
       end_linecap_type="zerowidth"
       offset_points="0,2.0933894 | 0,2.0584903 | 0.40644258,1.243068"
       linejoin_type="round"
       miter_limit="4"
       not_jump="false"
       sort_points="true"
       message="&lt;b&gt;Ctrl + click&lt;/b&gt; on existing node and move it" /><inkscape:path-effect
       effect="powerstroke"
       id="path-effect4-3-7-88-6-4-3"
       is_visible="true"
       lpeversion="1.3"
       scale_width="1"
       interpolator_type="CentripetalCatmullRom"
       interpolator_beta="0.2"
       start_linecap_type="zerowidth"
       end_linecap_type="zerowidth"
       offset_points="0,2.0933894 | 0,2.0584903 | 0.40802191,1.6444819"
       linejoin_type="round"
       miter_limit="4"
       not_jump="false"
       sort_points="true"
       message="&lt;b&gt;Ctrl + click&lt;/b&gt; on existing node and move it" /><inkscape:path-effect
       effect="powerstroke"
       id="path-effect4-3-7-88-6-4-6"
       is_visible="true"
       lpeversion="1.3"
       scale_width="1"
       interpolator_type="CentripetalCatmullRom"
       interpolator_beta="0.2"
       start_linecap_type="zerowidth"
       end_linecap_type="zerowidth"
       offset_points="0,2.0933894 | 0,2.0584903 | 0.38413892,1.6752185"
       linejoin_type="round"
       miter_limit="4"
       not_jump="false"
       sort_points="true"
       message="&lt;b&gt;Ctrl + click&lt;/b&gt; on existing node and move it" /></defs><g
     inkscape:label="Layer 1"
     inkscape:groupmode="layer"
     id="layer1"><path
       style="opacity:1;fill:#e9c6af;fill-opacity:1;fill-rule:nonzero;stroke:#000000;stroke-width:10.68618488;stroke-linecap:round;stroke-linejoin:round;stroke-dasharray:none;stroke-opacity:1;paint-order:normal"
       d="m 235.12475,116.89441 c -10.66968,5.24844 -14.85682,16.33117 -19.81639,26.71872 l -20.70701,7.12499 c -4.24226,3.47607 -24.59199,31.98369 -27.38669,37.40621 -1.61193,3.1276 12.442,16.8228 12.07909,17.03318 8.73299,15.95364 15.08917,19.61955 27.07904,17.69884 l -7.47577,28.17158 c -3.51404,-0.59817 -24.34554,6.17634 -24.12324,23.30287 0.15892,12.24364 10.91438,16.28282 10.91438,16.28282 -3.74189,-1.31471 14.90959,-3.48496 18.93271,2.15903 2.45556,3.44487 -17.42284,28.38816 -16.32075,44.76208 1.10952,16.48433 4.95981,45.28395 12.20212,53.47092 7.24232,8.18696 16.25339,13.20634 16.25339,13.20634 -3.64743,1.09422 -10.98665,39.83126 2.45193,47.95671 10.88096,6.57902 32.05975,8.26393 42.52458,5.14675 10.46483,-3.11719 25.0488,-18.48045 25.0488,-18.48045 0,0 4.00781,4.0078 9.1289,2.22656 5.12109,-1.78125 16.45424,-15.83187 17.24145,-30.31649 70.8162,-5.99413 103.73166,-66.53192 114.79356,-94.59354 7.45815,-58.86293 -4.42702,-76.54546 -4.42702,-76.54546 -13.79468,3.01873 -17.58488,-1.63264 -18.89298,-8.18696 13.73022,-1.48515 25.03648,-9.00203 33.52386,-18.43975 4.41135,-6.34699 24.84036,-56.26605 2.93288,-74.50732 -21.68468,-18.05575 -24.93748,-22.48826 -24.93748,-22.48826 l 32.50778,13.35936 C 450.15933,130.46169 420.58588,98.873497 408.34617,89.983454 397.42153,82.04859 364.79459,57.90216 327.16362,73.682657 289.79195,89.354416 273.77416,134.54145 275.5195,136.36023 l -7.86879,-19.53858 c 0,0 -22.39816,14.69688 -25.30199,27.28023 -0.82656,3.58179 -7.4466,-27.65278 -7.4466,-27.65278 z"
       id="path25"
       sodipodi:nodetypes="cccscccscssscsscscccccsccssccscc" /><path
       style="opacity:1;fill:none;fill-opacity:1;fill-rule:nonzero;stroke:#000000;stroke-width:8;stroke-linecap:round;stroke-linejoin:round;stroke-dasharray:none;stroke-opacity:1;paint-order:normal"
       d="m 87.663571,244.24737 -0.693342,-7.90757 c -0.558021,-8.33262 2.726664,-12.34105 4.875375,-17.58027"
       id="path20"
       sodipodi:nodetypes="ccc" /><path
       style="opacity:1;fill:#89a02c;fill-opacity:1;stroke:#000000;stroke-width:0;stroke-linecap:round;stroke-linejoin:bevel;stroke-dasharray:none;stroke-opacity:1;paint-order:normal"
       d="m 109.73678,282.05658 4.1722,-3.22755 c -2.90797,-7.11101 -4.56315,-18.71727 -9.05289,-20.15252 -1.81904,-0.64811 -3.66456,-1.76687 -5.982781,0.62976 -2.328962,-4.07477 -4.245393,-5.26183 -5.98278,-5.19557 -3.122961,-0.38865 -4.434665,0.6717 -5.353013,2.04674 -1.755205,-1.35384 -2.812855,-3.2167 -7.163592,-2.6765 -2.483251,0.43932 -3.692635,1.85853 -4.250923,3.77859 -2.13026,-1.36082 -4.366638,-2.35022 -7.084871,-1.65313 -3.966642,1.19143 -4.543512,2.86712 -5.510455,4.48708 -12.437454,0.51921 -16.563799,14.11777 -14.0123,17.86962 4.162079,8.43029 9.735187,7.8813 15.507995,6.0615 0.744998,6.26257 2.938772,6.18674 4.801968,7.5572 3.384004,1.08151 7.466612,1.12909 13.461255,-1.65314 1.156081,3.5195 7.133195,3.43957 11.324206,-0.38501 11.025171,-7.5731 12.822971,-7.84232 15.125981,-7.48707 z"
       id="path8"
       sodipodi:nodetypes="cccccccccccccccc" /><path
       style="display:inline;opacity:1;fill:#ffffff;fill-opacity:1;fill-rule:nonzero;stroke:none;stroke-width:8;stroke-linecap:round;stroke-linejoin:round;stroke-dasharray:none;stroke-opacity:1;paint-order:normal"
       d="m 241.71218,149.7663 c -35.07261,-1.82473 -46.42018,18.58165 -61.28414,35.54243 79.58797,14.10172 68.9391,38.62411 73.68266,40.46249 l -14.16974,-4.09348 c 18.74804,7.66286 20.56662,22.18372 4.45662,36.54033 -2.10842,-1.27899 7.86071,8.35234 3.89027,7.25859 -58.95262,-16.23979 -51.66301,18.56383 -53.84012,18.71734 -1.42515,0.10049 -18.2345,3.44957 -14.73917,-11.09121 2.50704,-10.42948 11.96563,-16.15389 25.35763,-24.39603 l 4.89843,-20.26169 19.81638,-2.22656 c -15.86299,-4.22536 -38.63015,-8.27369 -39.43414,-12.88518 l -18.61631,-23.75621 25.98799,-34.38588 c 11.7295,-5.79312 23.40171,-13.17224 39.1616,-10.04094 z"
       id="path43"
       sodipodi:nodetypes="cccccssscccccccc" /><path
       style="display:inline;fill:#000000;fill-rule:nonzero;stroke:none;stroke-width:2.8;stroke-linecap:round;stroke-linejoin:bevel;stroke-dasharray:none;stroke-opacity:1;paint-order:normal"
       d="m 182.94839,105.54342 c -0.27889,-0.20964 -1.67334,-1.25787 -1.67334,-1.25787 0,0 0.0243,0.005 0.0279,0.021 0.0169,0.0731 -0.1989,0.50691 -0.68195,1.16628 -0.51137,0.69803 -1.21526,1.50188 -2.13787,2.41462 -0.80893,0.80028 -1.6296,1.53088 -2.3431,2.15755 -0.43723,0.38402 -0.89949,0.77902 -1.40277,1.19891 -1.32004,1.10132 -2.70137,2.18154 -3.47435,2.84664 -0.81117,0.69795 -0.91032,0.90434 -0.86259,0.99446 0.0427,0.0806 0.28453,0.13905 1.3094,-0.21257 1.02483,-0.35162 2.53921,-1.0181 4.18949,-1.8798 0.59537,-0.31088 1.16012,-0.62191 1.68326,-0.92273 0.85568,-0.49206 1.85335,-1.11923 2.85864,-1.82963 2.20699,-1.55959 3.98024,-3.42179 4.15272,-3.45993 0.0183,-0.004 0.0279,0.021 0.0279,0.021 0,0 -1.39445,-1.04823 -1.67334,-1.25787 z"
       id="path4-3-6-96-6-0"
       inkscape:path-effect="#path-effect4-3-7-88-6-4"
       inkscape:original-d="m 182.94839,105.54342 c -3.61632,4.81078 -12.54807,9.54156 -12.54807,9.54156"
       sodipodi:nodetypes="cc"
       transform="translate(-90.9196,167.89994)" /><path
       style="display:inline;fill:#000000;fill-rule:nonzero;stroke:none;stroke-width:2.8;stroke-linecap:round;stroke-linejoin:bevel;stroke-dasharray:none;stroke-opacity:1;paint-order:normal"
       d="m 183.11538,104.09616 c -0.18185,-0.29776 -1.09108,-1.78657 -1.09108,-1.78657 0,0 0.0231,0.0134 0.0182,0.0298 -0.0478,0.16127 -2.16225,1.52999 -4.2657,3.34283 -0.8253,0.71129 -1.61013,1.43803 -2.24917,2.09009 -0.54452,0.55561 -1.13746,1.19855 -1.72727,1.87791 -0.55733,0.64194 -1.09318,1.29487 -1.57017,1.91616 -0.46955,0.61159 -0.86313,1.16776 -1.16794,1.64765 -0.15954,0.25118 -0.29176,0.4767 -0.39834,0.67705 -0.11544,0.21698 -0.19881,0.40064 -0.25551,0.55486 -0.031,0.0845 -0.0539,0.15941 -0.0697,0.22583 -0.0173,0.0729 -0.0262,0.13517 -0.0284,0.18824 -0.001,0.0291 -3.9e-4,0.0555 0.002,0.0792 0.003,0.0258 0.007,0.0487 0.0139,0.0686 0.003,0.0108 0.007,0.0208 0.012,0.03 0.005,0.01 0.0102,0.0186 0.0163,0.0261 0.006,0.008 0.0139,0.0149 0.0217,0.019 0.004,0.002 0.008,0.004 0.0125,0.004 0.004,4e-4 0.008,-3.2e-4 0.0114,-0.002 0.002,-0.003 0.005,-0.006 0.008,-0.007 0.003,-0.002 0.007,-0.002 0.0104,-0.003 0.007,-5.6e-4 0.0146,5.7e-4 0.0219,0.002 0.008,0.001 0.0137,0.002 0.0221,0.004 0.007,0.001 0.015,0.002 0.0234,0.002 0.0156,7.1e-4 0.033,8e-5 0.0534,-0.002 0.0187,-0.002 0.0397,-0.006 0.0634,-0.0121 0.0432,-0.0106 0.095,-0.0276 0.15755,-0.0527 0.057,-0.0228 0.12235,-0.0522 0.1975,-0.0892 0.13738,-0.0677 0.30442,-0.15957 0.50722,-0.28031 0.1873,-0.11151 0.40087,-0.24512 0.64331,-0.40235 0.46327,-0.30045 1.01109,-0.67363 1.62908,-1.1038 0.61127,-0.42551 1.31552,-0.92395 1.97344,-1.39227 0.67572,-0.48099 1.43963,-1.02776 2.00959,-1.44216 0.70645,-0.51363 1.53538,-1.14665 2.35677,-1.75801 2.25086,-1.67532 3.92143,-2.74877 4.11091,-2.69439 0.015,0.004 0.0182,0.0298 0.0182,0.0298 0,0 -0.90923,-1.48881 -1.09108,-1.78657 z"
       id="path4-3-6-96-6-0-4"
       inkscape:path-effect="#path-effect4-3-7-88-6-4-6"
       inkscape:original-d="m 183.11538,104.09616 c -5.15826,3.15022 -12.89594,10.79402 -12.71506,10.98882"
       sodipodi:nodetypes="cc"
       transform="translate(-101.73609,167.04648)" /><path
       style="display:inline;fill:#000000;fill-rule:nonzero;stroke:none;stroke-width:2.8;stroke-linecap:round;stroke-linejoin:bevel;stroke-dasharray:none;stroke-opacity:1;paint-order:normal"
       d="m 179.957,107.70824 c -0.23992,-0.25332 -1.43951,-1.5199 -1.43951,-1.5199 0,0 0.0266,0.007 0.024,0.0253 -0.0161,0.11395 -0.77232,0.87594 -1.79878,1.81518 -1.01701,0.9306 -2.25253,1.98339 -3.04977,2.75357 -0.29912,0.28897 -0.62275,0.61395 -0.93639,0.9392 -0.89065,0.92365 -1.64102,1.78228 -2.0422,2.38954 -0.40774,0.61721 -0.38344,0.86436 -0.31403,0.97381 v 0 c 0.0669,0.10546 0.28869,0.24235 1.02622,0.0982 0.73308,-0.14329 1.81998,-0.53873 3.01918,-1.12343 0.42377,-0.20662 0.83752,-0.42557 1.2169,-0.64336 1.03963,-0.59682 2.33964,-1.53184 3.5444,-2.48424 1.15583,-0.91372 2.04808,-1.71352 2.16549,-1.72934 0.0197,-0.003 0.024,0.0253 0.024,0.0253 0,0 -1.19959,-1.26658 -1.43951,-1.5199 z"
       id="path4-3-6-96-6-0-0"
       inkscape:path-effect="#path-effect4-3-7-88-6-4-3"
       inkscape:original-d="m 179.957,107.70824 c -4.20673,3.98421 -9.55668,7.37674 -9.55668,7.37674"
       sodipodi:nodetypes="cc"
       transform="translate(-78.766378,168.82773)" /><path
       style="opacity:1;fill:#89a02c;fill-opacity:1;stroke:#000000;stroke-width:0;stroke-linecap:round;stroke-linejoin:bevel;stroke-dasharray:none;stroke-opacity:1;paint-order:normal"
       d="m 150.29281,92.6249 c -26.08677,-7.867526 -37.21025,16.94771 -38.96481,18.25779 -5.16898,-3.16432 -10.32518,-2.41019 -16.086892,0.50097 -9.145193,6.62096 -5.697212,17.53643 -5.510736,23.99119 -9.213454,-0.99389 -10.010795,1.51893 -12.468737,3.33984 -6.887038,9.26765 -0.948542,15.59611 1.558593,22.71092 -1.727806,1.46487 -1.15717,3.91478 -0.890625,6.23437 -8.669622,-0.40122 -9.656325,3.03901 -11.1328,6.23436 -3.106746,11.18151 7.529598,17.67623 13.637681,25.60545 -4.144546,6.20914 -4.615514,12.38545 -2.98338,14.59535 3.824531,11.47918 13.46211,12.76617 21.39234,20.16599 19.146466,12.45571 22.797216,19.91279 29.623486,28.39424 l 7.01925,-5.26502 c -2.67954,-10.41301 -1.0709,-18.68192 1.22461,-26.6074 2.78208,-7.61368 6.61031,-14.07689 8.0721,-22.82223 0.0164,-2.29861 0.97062,-2.94957 -0.72445,-7.68164 2.9606,-7.53911 16.7927,-20.31459 11.68944,-32.50778 -1.57353,-3.21246 -4.37578,-5.57427 -9.79687,-6.12304 l -0.22265,-5.00976 c 5.65971,-7.58764 12.69138,-15.34677 13.60251,-22.34084 1.42766,-4.47281 -1.89829,-7.48955 -4.95941,-10.94219 5.70661,-7.34727 7.85488,-15.08815 4.95941,-22.43542 -1.29839,-3.584932 -4.32563,-6.343022 -9.03806,-8.29515 z"
       id="path7"
       sodipodi:nodetypes="ccccccccccccccccccccccc" /><path
       style="display:inline;opacity:1;fill:#89a02c;fill-opacity:1;stroke:#000000;stroke-width:0;stroke-linecap:round;stroke-linejoin:bevel;stroke-dasharray:none;stroke-opacity:1;paint-order:normal"
       d="m 174.39532,130.03111 c 3.6672,-7.10953 -4.29739,-21.76617 -2.67187,-31.06051 1.49453,-3.604074 3.98319,-4.921663 6.958,-5.121092 0.19619,-7.43552 -2.55669,-12.490756 2.50488,-19.148416 4.59913,-4.338413 7.19053,-0.868953 10.5967,-0.568029 2.88301,-5.074733 4.0398,-11.348232 10.37724,-14.024051 3.03058,-1.236717 6.27663,-1.288322 10.14224,2.067679 3.01661,-7.736163 8.70113,-9.621875 10.79881,-9.7412 1.38233,-0.482422 8.71791,-0.948106 11.9121,5.5664 5.70491,-2.922094 11.72123,-4.060605 18.575,-0.402873 4.12725,1.731002 7.58557,5.119454 7.92869,11.622107 -1.49187,12.638214 -8.3937,12.672509 -14.95341,13.857399 1.06034,5.183593 0.24651,9.019102 -2.92236,11.160632 -11.03968,7.851414 -16.23871,5.456589 -19.57375,7.870244 3.82347,8.92887 0.84193,10.96099 0.13486,12.10194 -8.98111,6.94641 -10.20654,4.34736 -14.24651,5.21236 -0.39543,1.95223 -2.84579,3.67979 -3.38741,3.71463 -18.68681,2.32071 -20.2325,7.09067 -26.77381,11.06758 z"
       id="path6"
       sodipodi:nodetypes="ccccccccccccccccccc" /><path
       style="display:inline;fill:#000000;fill-rule:nonzero;stroke:none;stroke-width:2.8;stroke-linecap:round;stroke-linejoin:bevel;stroke-dasharray:none;stroke-opacity:1;paint-order:normal"
       d="m 187.77657,113.26174 h 0 c 0.13269,-0.26761 0.32805,-0.86822 0.133,-1.76489 -0.18772,-0.86298 -0.73142,-1.88093 -1.49683,-2.53815 -0.16375,-0.1406 -0.34032,-0.27272 -0.52813,-0.39818 -1.37568,-0.91903 -3.35989,-1.48172 -5.31996,-2.41122 -0.71331,-0.33826 -1.41503,-0.66058 -2.12993,-0.98986 -1.26325,-0.57864 -2.90992,-1.42895 -4.74751,-2.46384 -0.54411,-0.30644 -1.1048,-0.6289 -1.67981,-0.96648 -1.15185,-0.67623 -2.23281,-1.32462 -3.58013,-2.130522 -2.02205,-1.2095 -3.70227,-2.206443 -4.84631,-2.798341 -1.13128,-0.585297 -1.41088,-0.59967 -1.4774,-0.51321 l 0,0 c -0.0654,0.08497 0.0174,0.355767 0.88401,1.292227 0.86867,0.938695 2.30254,2.307213 4.04107,3.897146 1.08686,0.99396 2.18974,1.98029 3.11959,2.80672 0.50562,0.44939 0.98999,0.88158 1.46494,1.30597 1.5568,1.39108 3.04934,2.73329 4.16233,3.68181 0.63287,0.54133 1.28215,1.06436 1.94439,1.56098 1.82761,1.37056 3.44078,2.8235 5.02994,3.51171 0.2171,0.094 0.4337,0.17374 0.65006,0.23685 1.01749,0.29678 2.19315,0.17631 3.02251,-0.17085 0.8569,-0.35869 1.22273,-0.88279 1.35417,-1.14787 z"
       id="path4-3-6-31"
       inkscape:path-effect="#path-effect4-3-7-44"
       inkscape:original-d="m 187.77657,113.26174 c 0,0 -5.66778,-2.81028 -10.67146,-6.04656 -5.00368,-3.23628 -15.00155,-10.928133 -15.00155,-10.928133"
       sodipodi:nodetypes="czc"
       transform="translate(-71.210286,107.57585)" /><path
       style="display:inline;fill:#000000;fill-rule:nonzero;stroke:none;stroke-width:2.8;stroke-linecap:round;stroke-linejoin:bevel;stroke-dasharray:none;stroke-opacity:1;paint-order:normal"
       d="m 225.57442,121.85978 c 0.18744,-0.26194 0.80624,-1.27768 0.14558,-2.27909 -0.71169,-1.07877 -4.10781,-3.5738 -10.8965,-7.11229 -3.84787,-2.00564 -8.11851,-3.9661 -12.55195,-5.66577 -2.19658,-0.84211 -4.26164,-1.55512 -6.21599,-2.17162 -2.86836,-0.90483 -5.60782,-1.59413 -8.21737,-2.07427 -6.22223,-1.14481 -11.80232,-1.12876 -16.68234,-0.33943 -2.12949,0.34444 -4.23467,0.86911 -6.22398,1.56308 -3.08398,1.07585 -5.21396,2.32046 -6.37377,3.18561 -1.17052,0.87315 -1.22362,1.21952 -1.17779,1.28661 0.0735,0.10768 0.32962,0.0791 1.6653,-0.34597 1.30753,-0.41617 3.54562,-1.15487 6.53869,-1.74609 1.95936,-0.38703 3.92765,-0.65042 5.95056,-0.80702 4.55707,-0.35277 9.78093,-0.11823 15.54075,1.08835 2.42638,0.50831 4.99924,1.20539 7.71279,2.10625 1.84334,0.61196 3.80742,1.35615 5.87673,2.23535 4.19745,1.78339 8.2086,3.85668 11.86372,5.91819 6.73278,3.79733 9.42401,5.81957 10.99271,6.1182 1.13059,0.21523 1.86301,-0.69479 2.05286,-0.96009 z"
       id="path4-3-6-96"
       inkscape:path-effect="#path-effect4-3-7-88"
       inkscape:original-d="m 225.57442,121.85978 c 0,0 -19.02282,-13.6125 -38.11752,-17.36047 -19.09471,-3.74797 -30.07659,3.7533 -30.07659,3.7533"
       sodipodi:nodetypes="czc"
       transform="translate(-98.210286,167.57585)" /><path
       style="display:inline;fill:#000000;fill-rule:nonzero;stroke:none;stroke-width:2.8;stroke-linecap:round;stroke-linejoin:bevel;stroke-dasharray:none;stroke-opacity:1;paint-order:normal"
       d="m 175.6286,115.904 c 0.30218,-3.8e-4 0.78095,0.0413 1.36221,-0.3837 0.25527,-0.18663 0.48623,-0.42611 0.78064,-0.38388 0.31586,0.0453 0.6076,0.38734 0.76457,0.76391 0.0793,0.19028 0.13221,0.39377 0.1604,0.48897 0.024,0.0811 0.0418,0.12999 0.0611,0.15153 0.0298,0.0333 0.0619,-0.004 0.10573,-0.10579 0.0669,-0.15497 0.17247,-0.49265 0.31739,-0.95063 0.27307,-0.86293 0.60299,-1.88842 1.09271,-3.28276 0.47111,-1.34135 0.98804,-2.72838 1.45119,-3.87616 0.24553,-0.60847 0.47216,-1.14031 0.672,-1.5713 0.31455,-0.67839 0.56303,-1.22065 0.76715,-1.67503 0.53681,-1.16896 1.1642,-2.48255 1.88451,-3.83854 0.34083,-0.64162 0.63018,-1.1776 0.97102,-1.819224 0.54074,-1.019109 0.95856,-1.838554 1.18016,-2.397023 0.21898,-0.551847 0.1861,-0.70453 0.12278,-0.753829 -0.0624,-0.04857 -0.22124,-0.04463 -0.69919,0.31119 -0.48091,0.358021 -1.16999,0.985993 -1.99685,1.799454 -0.50848,0.500237 -1.01678,1.019099 -1.46626,1.483685 -1.04578,1.080947 -2.16732,2.217767 -3.04301,3.192627 -0.38186,0.43081 -0.80253,0.95961 -1.2684,1.60847 -0.35345,0.49229 -0.71119,0.98207 -1.06465,1.47436 -0.78649,1.0955 -1.62113,2.2898 -2.47195,3.57247 -0.80526,1.21397 -1.51745,2.34357 -1.98861,3.1948 -0.27923,0.50448 -0.47701,0.91531 -0.59735,1.27073 -0.0752,0.22203 -0.12172,0.42735 -0.14085,0.63619 -0.012,0.13101 -0.0137,0.26921 -0.003,0.41607 0.0148,0.19752 0.0553,0.43936 0.13882,0.67708 0.15403,0.43856 0.46273,0.79889 0.77682,0.85122 0.2968,0.0495 0.52662,-0.19487 0.77807,-0.39137 0.5638,-0.44061 1.05859,-0.46315 1.35253,-0.46352 z"
       id="path4-3-6-3"
       inkscape:path-effect="#path-effect4-3-7-11"
       inkscape:original-d="m 175.6286,115.904 c -0.001,-0.79223 3.76782,-8.45395 6.01169,-11.83567 2.24387,-3.38172 5.68189,-7.797786 5.68189,-7.797786"
       sodipodi:nodetypes="czc"
       transform="translate(-55.206382,113.04068)" /><path
       style="display:inline;fill:#000000;fill-rule:nonzero;stroke:none;stroke-width:2.8;stroke-linecap:round;stroke-linejoin:bevel;stroke-dasharray:none;stroke-opacity:1;paint-order:normal"
       d="m 187.4342,121.19065 c 0.3078,0.35546 1.55098,1.67138 2.65046,1.45079 0.87833,-0.17622 2.22526,-1.35514 4.04177,-3.20959 1.20271,-1.22783 2.41548,-2.56122 3.45381,-3.73099 0.3778,-0.42563 0.85549,-0.97072 1.2333,-1.39636 0.0925,-0.10428 0.18145,-0.20627 0.26707,-0.306 0.4716,-0.5493 0.8436,-1.03348 1.1277,-1.46392 0.29873,-0.46592 0.57066,-0.89219 0.9845,-1.53141 0.37854,-0.58468 0.81036,-1.24581 1.30274,-1.98789 0.29241,-0.44069 0.60322,-0.90548 0.93755,-1.40101 0.59019,-0.87476 1.3777,-2.04983 2.10673,-3.15774 1.2072,-1.83458 2.23737,-3.45801 2.84146,-4.557382 0.60489,-1.100844 0.62305,-1.389005 0.53852,-1.457708 -0.0851,-0.06913 -0.36194,0.0086 -1.31821,0.821774 -0.95802,0.814676 -2.33604,2.140906 -3.90337,3.678376 -0.61335,0.60166 -2.08186,2.05254 -2.69521,2.6542 -0.42306,0.41645 -0.82311,0.80436 -1.20154,1.16572 -0.63548,0.60682 -1.21307,1.14164 -1.71631,1.59181 -0.50818,0.45459 -0.96774,0.84706 -1.31014,1.11236 -0.29224,0.21676 -0.72146,0.56125 -1.22102,0.97634 -0.0923,0.0767 -0.18785,0.15649 -0.28672,0.23947 -0.38384,0.32216 -0.84871,0.69199 -1.37454,1.10132 -1.1618,0.9044 -2.6204,1.9994 -3.91988,3.01956 -2.01055,1.57839 -3.33235,2.72341 -3.61845,3.56972 -0.354,1.04715 0.77199,2.4631 1.07978,2.81856 z"
       id="path4-3-6-5"
       inkscape:path-effect="#path-effect4-3-7-8"
       inkscape:original-d="m 187.4342,121.19065 c 0,0 8.62204,-7.46593 11.05747,-10.19052 2.43544,-2.7246 10.42814,-12.55869 10.42814,-12.55869"
       sodipodi:nodetypes="czc"
       transform="translate(-73.210286,86.575849)" /><path
       style="display:inline;fill:#000000;fill-rule:nonzero;stroke:none;stroke-width:2.8;stroke-linecap:round;stroke-linejoin:bevel;stroke-dasharray:none;stroke-opacity:1;paint-order:normal"
       d="m 183.92253,100.87473 c 0.26389,-0.22824 0.71014,-1.549775 0.22696,-2.5423 -0.38914,-0.799368 -0.90621,-1.678228 -2.14784,-2.411322 -0.69335,-0.409374 -1.62855,-0.772294 -2.79504,-1.131523 -0.53712,-0.149123 -1.21115,-0.3721 -1.98597,-0.65955 -0.75405,-0.279749 -1.58676,-0.614276 -2.45973,-0.989074 -0.53651,-0.230343 -1.08523,-0.474618 -1.63546,-0.72841 -1.01426,-0.467827 -2.67303,-1.239299 -3.68729,-1.707126 -2.11084,-0.975187 -3.88819,-1.77802 -5.09032,-2.21928 -1.19482,-0.438578 -1.50155,-0.397508 -1.57349,-0.286881 -0.0704,0.108295 0.0129,0.411906 0.91476,1.315681 0.89774,0.899654 2.40775,2.193048 4.23334,3.645799 1.12766,0.89736 2.2746,1.774585 3.26999,2.510312 0.27986,0.206854 1.19642,0.887158 1.47628,1.094013 0.78274,0.580172 1.54752,1.144932 2.24591,1.646414 0.71369,0.512469 1.38819,0.980732 1.97868,1.353568 0.9135,0.608289 1.61504,1.092989 2.21037,1.396269 1.06991,0.54503 1.82653,0.53885 2.57094,0.54812 1.09497,0.0136 1.88229,-0.51848 2.24791,-0.83471 z"
       id="path4-3-6-91"
       inkscape:path-effect="#path-effect4-3-7-32"
       inkscape:original-d="m 183.92253,100.87473 c 0,0 -1.2543,-1.450194 -5.87257,-3.597412 -4.61827,-2.147218 -15.27561,-9.078054 -15.27561,-9.078054"
       sodipodi:nodetypes="czc"
       transform="translate(-74.210286,94.575849)" /><path
       style="display:inline;fill:#000000;fill-rule:nonzero;stroke:none;stroke-width:2.8;stroke-linecap:round;stroke-linejoin:bevel;stroke-dasharray:none;stroke-opacity:1;paint-order:normal"
       d="m 168.81673,121.07257 c 0.1911,0.20689 0.67298,0.59281 1.5427,0.71228 0.84634,0.11625 1.96857,-0.0494 2.95305,-0.61941 0.63946,-0.37023 1.30681,-0.92648 2.00716,-1.59763 1.11918,-1.07251 2.35477,-2.47433 3.50753,-3.70193 0.5123,-0.54556 1.01209,-1.06133 1.49176,-1.51581 0.66908,-0.63394 1.25021,-1.18015 1.76606,-1.66116 0.85704,-0.80729 2.08103,-1.77004 3.50146,-2.80037 0.42215,-0.30621 0.8629,-0.61936 1.3216,-0.93995 0.94448,-0.66011 1.75892,-1.21794 2.86362,-1.97324 1.62139,-1.10856 2.96302,-2.02738 3.80192,-2.69317 0.83078,-0.65934 0.93148,-0.88937 0.88421,-0.98898 -0.0456,-0.0962 -0.29272,-0.17246 -1.32822,0.081 -1.03141,0.25243 -2.61628,0.778 -4.46379,1.48071 -1.16557,0.44333 -2.30424,0.9074 -3.2904,1.33136 -0.52785,0.22693 -1.04182,0.45315 -1.536,0.67609 -1.64191,0.7407 -3.18238,1.49744 -4.39313,2.20015 -0.68351,0.39339 -1.43109,0.86869 -2.23039,1.41137 -0.57444,0.39 -1.21475,0.80678 -1.86159,1.22916 -1.48286,0.9683 -3.05535,2.00262 -4.30559,3.01609 -0.77216,0.62594 -1.41651,1.23972 -1.8647,1.84536 -0.69152,0.93445 -0.97523,2.04682 -0.94064,2.90623 0.0355,0.88188 0.38306,1.39582 0.57338,1.60187 z"
       id="path4-3-6-9"
       inkscape:path-effect="#path-effect4-3-7-45"
       inkscape:original-d="m 168.81673,121.07257 c 0,0 7.66353,-7.07867 11.9489,-10.19687 4.28537,-3.11821 13.69217,-7.5825 13.69217,-7.5825"
       sodipodi:nodetypes="czc"
       transform="translate(-60.210286,63.575849)" /><path
       style="display:inline;fill:#000000;fill-rule:nonzero;stroke:none;stroke-width:2.8;stroke-linecap:round;stroke-linejoin:bevel;stroke-dasharray:none;stroke-opacity:1;paint-order:normal"
       d="m 192.26933,132.63254 v 0 c 0.25865,-0.16481 0.795,-0.62769 1.0252,-1.65327 0.22424,-0.99906 0.10092,-2.42031 -0.51699,-3.64935 -1.05547,-2.09938 -3.55012,-4.06515 -6.07267,-7.04473 -0.58757,-0.69402 -1.187,-1.40537 -1.80466,-2.13852 -1.47609,-1.73299 -2.80849,-3.71903 -4.02595,-5.84241 -0.35555,-0.62012 -0.70349,-1.25576 -1.04518,-1.90626 -0.64512,-1.22812 -1.26655,-2.50641 -1.89978,-3.9043 -0.92266,-2.03681 -1.667,-3.88428 -2.13486,-4.90832 -0.48506,-1.06169 -0.66786,-1.22626 -0.78068,-1.20485 v 0 c -0.0968,0.0184 -0.24941,0.2507 -0.19677,1.43834 0.0524,1.18245 0.30969,3.09513 0.8577,5.43639 0.3576,1.52777 0.78595,3.0104 1.24729,4.379 0.24857,0.73741 0.51435,1.46443 0.79585,2.17781 0.95982,2.43233 2.14478,4.81337 3.55542,7.00276 0.50881,0.79798 0.99807,1.57861 1.4667,2.34249 2.01461,3.28391 2.95153,6.2541 4.48186,7.95392 0.89226,0.99109 2.13801,1.62196 3.12845,1.79753 1.02017,0.18083 1.65873,-0.11034 1.91907,-0.27623 z"
       id="path4-3-6-1"
       inkscape:path-effect="#path-effect4-3-7-4"
       inkscape:original-d="m 192.26933,132.63254 c 0,0 -3.18726,-5.00202 -9.1826,-13.15179 -5.99534,-8.14976 -8.07297,-19.10022 -8.07297,-19.10022"
       sodipodi:nodetypes="czc"
       transform="translate(-83.210286,48.575849)" /><path
       style="display:inline;fill:#000000;fill-rule:nonzero;stroke:none;stroke-width:2.8;stroke-linecap:round;stroke-linejoin:bevel;stroke-dasharray:none;stroke-opacity:1;paint-order:normal"
       d="m 189.87578,115.92089 c 0.27634,0.27868 1.31586,1.21787 2.13578,1.07207 0.56066,-0.0997 1.22133,-0.69079 2.21382,-1.61656 1.19413,-1.11385 2.51509,-2.36146 3.93233,-3.30277 0.61938,-0.41139 1.22026,-0.77482 1.79571,-1.09327 1.08272,-0.5954 2.62133,-1.38306 4.17888,-2.18973 0.47628,-0.24668 0.97717,-0.50678 1.4936,-0.77678 0.91869,-0.4803 2.09895,-1.11421 3.17305,-1.70607 1.76813,-0.97428 3.24828,-1.83269 4.15007,-2.45135 0.90473,-0.62066 1.02088,-0.8599 0.98055,-0.96187 -0.0397,-0.10044 -0.29007,-0.19946 -1.37517,-0.0218 -1.07784,0.17649 -2.75251,0.59038 -4.69937,1.15385 -1.21792,0.35249 -2.44212,0.7351 -3.46844,1.08143 -0.55956,0.18883 -1.098,0.3763 -1.61228,0.5604 -1.73048,0.61946 -3.27606,1.23289 -4.54583,1.78569 -0.71966,0.31508 -1.45179,0.68223 -2.19739,1.09428 -1.72751,0.9547 -3.41861,1.91501 -4.9232,2.99072 -1.21445,0.86828 -1.95933,1.57095 -2.14366,2.1502 -0.28213,0.88663 0.63352,1.95116 0.91155,2.23155 z"
       id="path4-3-6-4"
       inkscape:path-effect="#path-effect4-3-7-1"
       inkscape:original-d="m 189.87578,115.92089 c 0,0 4.37056,-4.33377 9.21517,-6.70364 4.84461,-2.36988 14.83862,-6.32269 14.83862,-6.32269"
       sodipodi:nodetypes="czc"
       transform="translate(-77.210286,39.575849)" /><path
       style="display:inline;fill:#000000;fill-rule:nonzero;stroke:none;stroke-width:2.8;stroke-linecap:round;stroke-linejoin:bevel;stroke-dasharray:none;stroke-opacity:1;paint-order:normal"
       d="m 180.66421,113.71217 c 0.22347,0.0298 0.67155,-0.02 1.27262,-0.58934 0.57662,-0.54618 1.18661,-1.48929 1.51842,-2.42444 0.0477,-0.13436 0.0926,-0.27076 0.13501,-0.40887 0.32156,-1.04797 0.49525,-2.19127 0.60266,-3.35784 0.0434,-0.47169 0.0761,-0.94871 0.10301,-1.42257 0.0367,-0.64684 0.0264,-1.27125 -0.0157,-1.84808 -0.092,-0.7704 -0.12132,-1.78172 -0.0381,-2.93564 0.023,-0.31856 0.0543,-0.64498 0.0946,-0.976827 0.087,-0.716557 0.19078,-1.428224 0.31748,-2.257358 0.18929,-1.238627 0.34981,-2.237108 0.39042,-2.922612 0.0399,-0.673034 -0.0547,-0.838572 -0.15143,-0.879332 -0.0928,-0.03909 -0.28844,0.0059 -0.72427,0.531514 -0.4351,0.524698 -1.01326,1.415133 -1.63844,2.534006 -0.40732,0.728988 -0.78238,1.461565 -1.10175,2.126179 -0.15439,0.321277 -0.30845,0.642864 -0.45708,0.958794 -0.52632,1.118756 -1.02477,2.247906 -1.31688,3.293656 -0.16919,0.53767 -0.3239,1.13127 -0.44179,1.75933 -0.0864,0.46035 -0.16971,0.92535 -0.24269,1.389 -0.18029,1.14541 -0.29844,2.28834 -0.25286,3.37863 0.006,0.14363 0.0149,0.28629 0.0268,0.4277 0.0831,0.98333 0.42998,2.04956 0.84479,2.72455 0.43288,0.7044 0.85133,0.86967 1.07516,0.89955 z"
       id="path4-3"
       inkscape:path-effect="#path-effect4-3"
       inkscape:original-d="m 180.66421,113.71217 c 0,0 0.87129,-6.52762 1.30331,-10.31495 0.43201,-3.787326 2.9257,-9.707959 2.9257,-9.707959"
       sodipodi:nodetypes="czc"
       transform="translate(26.809033,-22.783753)" /><path
       style="display:inline;fill:#000000;fill-rule:nonzero;stroke:none;stroke-width:2.8;stroke-linecap:round;stroke-linejoin:bevel;stroke-dasharray:none;stroke-opacity:1;paint-order:normal"
       d="m 180.86101,116.34932 c 0.19763,0.0237 0.60444,-0.0616 1.15453,-0.78165 0.5268,-0.68951 1.0846,-1.85568 1.36937,-2.98247 0.047,-0.18592 0.0892,-0.3747 0.12722,-0.56569 0.25441,-1.27871 0.31937,-2.65852 0.35463,-4.01369 0.0151,-0.58182 0.0249,-1.16102 0.0408,-1.72701 0.0197,-0.70053 0.0254,-1.36462 0.007,-1.95975 -0.0198,-0.40502 -0.013,-0.89654 0.0168,-1.46536 0.0285,-0.54604 0.0773,-1.1483 0.13992,-1.79996 0.0379,-0.39498 0.0805,-0.80301 0.12616,-1.225319 0.0463,-0.427895 0.22212,-2.082313 0.28319,-2.667983 0.15785,-1.513661 0.28146,-2.804344 0.28419,-3.652816 0.003,-0.848366 -0.1198,-1.044408 -0.22581,-1.077894 -0.10183,-0.03216 -0.32625,0.0556 -0.79012,0.775405 -0.45942,0.712884 -1.05909,1.905629 -1.65916,3.339209 -0.37874,0.904816 -0.71812,1.812779 -0.97895,2.611687 -0.13878,0.425109 -0.26701,0.845621 -0.38346,1.256971 -0.19172,0.67726 -0.35289,1.33452 -0.47796,1.9549 -0.12941,0.64194 -0.22396,1.26305 -0.271,1.83935 -0.0513,0.5356 -0.10931,1.13204 -0.17911,1.80492 -0.0555,0.53536 -0.13042,1.08843 -0.20778,1.64684 -0.18085,1.30543 -0.3743,2.63573 -0.381,3.92205 -0.001,0.19161 0.002,0.38207 0.0102,0.57088 0.0483,1.13954 0.34003,2.39378 0.6962,3.17523 0.37387,0.82031 0.74501,0.99825 0.9442,1.02215 z"
       id="path4-3-6"
       inkscape:path-effect="#path-effect4-3-7"
       inkscape:original-d="m 180.86101,116.34932 c 0,0 0.97226,-8.10204 1.08543,-12.08617 0.11317,-3.98413 2.59254,-11.833422 2.59254,-11.833422"
       sodipodi:nodetypes="czc"
       transform="translate(-57.293486,14.508899)" /><path
       style="display:inline;fill:#000000;fill-rule:nonzero;stroke:none;stroke-width:2.8;stroke-linecap:round;stroke-linejoin:bevel;stroke-dasharray:none;stroke-opacity:1;paint-order:normal"
       d="m 185.48112,114.51241 c 0.35554,-0.28238 1.01946,-1.36821 0.61319,-2.82388 -0.0274,-0.0981 -0.0594,-0.1957 -0.0955,-0.29318 -0.34621,-0.93527 -1.0761,-1.8558 -1.65809,-3.13803 -0.21595,-0.47578 -0.4253,-0.9801 -0.62175,-1.50515 -0.16033,-0.41876 -0.34242,-1.02445 -0.54122,-1.78656 -0.1904,-0.72992 -0.39129,-1.58385 -0.6042,-2.53935 -0.12905,-0.57918 -0.26127,-1.18997 -0.39798,-1.83076 0.0756,0.3545 -0.96203,-4.495368 -0.88639,-4.140863 -0.51437,-2.39468 -0.97473,-4.492017 -1.35117,-5.837866 -0.3772,-1.348556 -0.57613,-1.592838 -0.68712,-1.582547 -0.10753,0.01 -0.26737,0.288076 -0.36745,1.688805 -0.0989,1.384616 -0.11537,3.569322 -0.0455,6.026136 0.044,1.545025 0.1183,3.044839 0.20992,4.290515 0.049,0.66617 0.10354,1.30842 0.1625,1.91816 0.0971,1.00403 0.20688,1.92792 0.32586,2.73844 0.12239,0.83371 0.26039,1.58847 0.41496,2.20089 0.16322,0.65859 0.35544,1.285 0.56149,1.87539 0.54408,1.55892 1.02315,2.91919 1.7635,3.82427 0.0778,0.0952 0.15864,0.18539 0.24269,0.27018 0.5166,0.52112 1.24221,0.84466 1.84019,0.90664 0.61117,0.0633 0.97207,-0.14215 1.12201,-0.26124 z"
       id="path4-3-6-0"
       inkscape:path-effect="#path-effect4-3-7-3"
       inkscape:original-d="m 185.48112,114.51241 c 0,0 -2.36758,-2.98095 -3.64601,-7.18774 -1.27843,-4.20679 -2.58421,-18.290446 -2.58421,-18.290446"
       sodipodi:nodetypes="czc"
       transform="translate(-73.350895,35.726218)" /><path
       style="display:inline;fill:#000000;fill-rule:nonzero;stroke:none;stroke-width:2.8;stroke-linecap:round;stroke-linejoin:bevel;stroke-dasharray:none;stroke-opacity:1;paint-order:normal"
       d="m 180.80337,108.59108 c 0.47274,0.0976 1.87931,0.2518 2.47317,-0.42441 0.0352,-0.0401 0.0678,-0.0825 0.0981,-0.12726 0.31902,-0.47177 0.37432,-1.19185 0.40493,-2.30244 0.0123,-0.44467 -0.0127,-0.94571 -0.055,-1.51918 -0.0494,-0.36563 -0.0759,-0.81718 -0.0709,-1.33707 0.005,-0.49775 0.0383,-1.04782 0.10444,-1.63542 0.0375,-0.3336 0.0854,-0.67738 0.14393,-1.02848 0.12538,-0.752205 0.27591,-1.522793 0.45894,-2.406967 0.27616,-1.334094 0.51592,-2.410374 0.61308,-3.160493 0.095,-0.733728 0.0146,-0.915127 -0.0809,-0.960099 -0.0911,-0.04289 -0.29461,0.0065 -0.77985,0.576826 -0.48351,0.568289 -1.1394,1.531364 -1.84632,2.726683 -0.46111,0.779679 -0.88349,1.556057 -1.24171,2.257969 -0.17311,0.339207 -0.34458,0.677282 -0.50903,1.008431 -0.28846,0.58087 -0.56353,1.15684 -0.80097,1.71096 -0.24687,0.57614 -0.4644,1.15456 -0.61821,1.71981 -0.16931,0.54018 -0.30838,1.01065 -0.40084,1.43373 -0.23132,1.05847 -0.36162,1.7238 -0.18071,2.22236 0.0171,0.0473 0.0371,0.0929 0.06,0.137 0.36452,0.70087 1.7778,1.01514 2.22774,1.10805 z"
       id="path4-3-4"
       inkscape:path-effect="#path-effect4-3-8"
       inkscape:original-d="m 180.80337,108.59108 c 0,0 0.17549,-0.84989 0.60751,-4.63722 0.43201,-3.78733 3.48234,-10.264599 3.48234,-10.264599"
       sodipodi:nodetypes="czc"
       transform="translate(43.385854,-30.063553)" /><path
       style="display:inline;fill:#000000;fill-rule:nonzero;stroke:none;stroke-width:2.8;stroke-linecap:round;stroke-linejoin:bevel;stroke-dasharray:none;stroke-opacity:1;paint-order:normal"
       d="m 182.92883,107.84323 c 0.0323,-0.0317 0.0812,-0.0623 0.15123,-0.0868 0.054,-0.0189 0.11638,-0.0328 0.18674,-0.0424 0.11653,-0.016 0.24969,-0.0196 0.39014,-0.0184 0.23764,0.002 0.49471,0.0165 0.73468,0.0162 0.23192,-2.8e-4 0.43966,-0.0134 0.61061,-0.0509 0.13441,-0.0295 0.23834,-0.0727 0.2976,-0.12791 0.0238,-0.0221 0.0431,-0.0465 0.0586,-0.0733 0.14804,-0.25651 -0.0659,-0.69222 -0.12157,-1.57128 -0.0339,-0.53552 -0.0922,-1.18808 -0.12614,-1.7236 -0.0602,-0.22513 -0.0659,-0.5407 0.0265,-0.94802 0.0884,-0.38977 0.25852,-0.82828 0.50962,-1.29927 0.13641,-0.25585 0.29411,-0.51644 0.4707,-0.7791 0.40797,-0.60679 0.92171,-1.248964 1.54013,-1.934631 0.76838,-0.851925 1.55848,-1.615376 2.10284,-2.161245 0.77365,-0.775794 0.89584,-0.978497 0.84001,-1.07044 -0.0444,-0.07306 -0.36944,-0.08034 -1.33213,0.358654 -0.72845,0.332179 -1.71178,0.867982 -2.74067,1.55086 -0.81509,0.540972 -1.55243,1.103474 -2.18811,1.662422 -0.27789,0.244347 -0.54882,0.49661 -0.80658,0.7562 -0.46856,0.47189 -0.90748,0.9818 -1.26971,1.52989 -0.37591,0.56879 -0.68797,1.20691 -0.85231,1.91266 -0.20851,0.70143 -0.37862,1.25356 -0.49828,1.70804 -0.22986,0.87305 -0.51803,1.34003 -0.40543,1.72694 0.0116,0.0398 0.0275,0.0783 0.0483,0.11559 0.0516,0.0928 0.15057,0.18462 0.28218,0.26807 0.16563,0.10502 0.37788,0.19384 0.61058,0.26287 0.24049,0.0713 0.50645,0.12233 0.74553,0.14291 0.14222,0.0122 0.27765,0.0139 0.39502,0.001 0.071,-0.008 0.13394,-0.0207 0.18822,-0.0391 0.0704,-0.0238 0.1195,-0.0544 0.15178,-0.086 z"
       id="path4-3-4-5"
       inkscape:path-effect="#path-effect4-3-8-8"
       inkscape:original-d="m 182.92883,107.84323 c 0,0 -0.10003,-0.10204 0.33199,-3.88937 0.43201,-3.78733 7.33966,-7.981696 7.33966,-7.981696"
       sodipodi:nodetypes="czc"
       transform="translate(54.569474,-33.67749)" /><path
       style="display:inline;fill:#000000;fill-rule:nonzero;stroke:none;stroke-width:2.8;stroke-linecap:round;stroke-linejoin:bevel;stroke-dasharray:none;stroke-opacity:1;paint-order:normal"
       d="m 179.58435,107.38882 c -0.0315,0.39461 -0.18889,2.36766 -0.18889,2.36766 0,0 -0.0724,-0.14295 0.0161,-0.20145 0.2477,-0.16377 1.65057,-0.19138 3.37008,-0.0943 1.87752,0.106 3.48949,0.30371 5.01248,0.44851 0.62385,0.0593 1.25236,0.12502 1.92501,0.19851 1.58782,0.17349 2.88707,0.33137 3.72282,0.37142 0.83023,0.0398 0.99656,-0.0524 1.02721,-0.14568 v 0 c 0.0284,-0.0863 -0.0468,-0.27882 -0.77644,-0.70086 -0.73751,-0.4266 -1.9506,-0.97312 -3.48775,-1.54971 -0.64068,-0.24032 -1.27452,-0.46229 -1.87864,-0.6642 -1.43498,-0.47959 -3.20559,-0.93111 -5.07213,-1.34231 -1.75807,-0.38731 -3.26391,-0.65591 -3.497,-0.85379 -0.0855,-0.0726 0.0161,-0.20145 0.0161,-0.20145 0,0 -0.15741,1.97305 -0.18889,2.36766 z"
       id="path4-3-4-5-2"
       inkscape:path-effect="#path-effect4-3-8-8-6"
       inkscape:original-d="m 179.58435,107.38882 c 7.82742,0.62447 14.88478,2.94466 14.88478,2.94466"
       sodipodi:nodetypes="cc"
       transform="translate(42.981771,-28.202972)" /><path
       style="display:inline;fill:#000000;fill-rule:nonzero;stroke:none;stroke-width:2.8;stroke-linecap:round;stroke-linejoin:bevel;stroke-dasharray:none;stroke-opacity:1;paint-order:normal"
       d="m 179.89923,107.62498 c 0.0429,0.41271 -0.29531,1.96826 0.24536,2.36247 0.37474,0.27324 1.30936,0.13529 2.50145,-0.0664 1.23994,-0.20974 2.53306,-0.44941 3.53918,-0.52824 0.0333,-0.003 0.0661,-0.005 0.0986,-0.008 1.36011,-0.1105 2.01637,-0.27058 3.67572,-0.3536 0.79014,-0.0395 1.81046,-0.0651 3.00212,-0.0769 2.119,-0.021 4.4646,0.009 5.82754,-0.0251 1.43957,-0.0364 1.68693,-0.14272 1.70209,-0.24903 0.014,-0.0979 -0.19182,-0.2918 -1.58697,-0.6795 -1.41695,-0.39375 -3.49479,-0.831 -5.75247,-1.24439 -1.16284,-0.21292 -2.24044,-0.39481 -3.01317,-0.53134 -1.67425,-0.29582 -2.33469,-0.51355 -3.75065,-0.69901 -0.0338,-0.004 -0.068,-0.009 -0.1027,-0.0132 -2.13073,-0.26786 -5.77601,-1.05199 -6.63144,-0.25041 -0.51967,0.48695 0.20447,1.96872 0.24536,2.36247 z"
       id="path4-3-4-5-2-2"
       inkscape:path-effect="#path-effect4-3-8-8-6-5"
       inkscape:original-d="m 179.89923,107.62498 c 7.63062,-0.7925 20.59204,1.05536 20.59204,1.05536"
       sodipodi:nodetypes="cc"
       transform="translate(26.895654,-16.841588)" /><path
       style="display:inline;fill:#000000;fill-rule:nonzero;stroke:none;stroke-width:2.8;stroke-linecap:round;stroke-linejoin:bevel;stroke-dasharray:none;stroke-opacity:1;paint-order:normal"
       d="m 182.02469,105.97185 c 0.006,0.35497 -0.42893,1.6996 0.0359,2.12981 0.43025,0.39818 1.67447,0.35429 3.20077,0.13158 1.09965,-0.16046 2.30806,-0.40953 3.24964,-0.57509 0.0965,-0.017 0.19163,-0.0345 0.28558,-0.0525 1.92992,-0.36999 3.3615,-0.93766 5.66566,-1.53388 0.44757,-0.11581 0.96388,-0.24688 1.50858,-0.38548 2.30111,-0.58554 4.59321,-1.18035 6.24919,-1.70929 1.62365,-0.51862 1.87325,-0.73693 1.85304,-0.84649 -0.0213,-0.11536 -0.32876,-0.21482 -2.02713,-0.15758 -1.59402,0.0537 -4.25999,0.24197 -6.43222,0.3506 -0.56132,0.0281 -1.07839,0.0506 -1.54024,0.066 -2.14179,0.0717 -3.61613,-0.11526 -5.75792,-0.0436 -0.0926,0.003 -0.18622,0.007 -0.28089,0.0109 -0.97045,0.0431 -2.06574,0.0315 -3.15105,0.0385 -1.44767,0.009 -2.54037,0.0464 -2.89485,0.4466 -0.40456,0.4568 0.0297,1.76188 0.0359,2.12981 z"
       id="path4-3-4-5-2-2-6"
       inkscape:path-effect="#path-effect4-3-8-8-6-5-4"
       inkscape:original-d="m 182.02469,105.97185 c 7.31574,-0.12338 22.04838,-2.84133 22.04838,-2.84133"
       sodipodi:nodetypes="cc"
       transform="translate(14.346122,-1.8987619)" /><path
       style="display:inline;fill:#000000;fill-rule:nonzero;stroke:none;stroke-width:2.8;stroke-linecap:round;stroke-linejoin:bevel;stroke-dasharray:none;stroke-opacity:1;paint-order:normal"
       d="m 187.14578,104.58025 c 0.0108,0.35485 -0.40838,1.77838 0.0649,2.12912 0.53672,0.39777 2.06764,-0.0636 3.46077,-0.24039 0.66515,-0.0844 1.3751,-0.20119 2.12483,-0.33975 1.33572,-0.24686 2.84751,-0.57298 4.35861,-0.89241 0.34944,-0.0739 0.72734,-0.15524 1.12067,-0.2423 1.74076,-0.38532 3.42888,-0.80379 4.53462,-1.17467 1.10987,-0.37226 1.27657,-0.57771 1.26289,-0.68933 -0.014,-0.11446 -0.22387,-0.26601 -1.38525,-0.378 -1.13665,-0.1096 -2.90603,-0.15557 -4.65433,-0.19143 -0.12451,-0.003 -1.01177,-0.0197 -1.13628,-0.0222 -1.6108,-0.0306 -2.9737,-0.0896 -4.38568,-0.1352 -0.74598,-0.0241 -1.45081,-0.0421 -2.10066,-0.043 -1.3659,-0.002 -2.8634,-0.3245 -3.32999,0.0904 -0.42959,0.38203 0.0539,1.77 0.0649,2.12912 z"
       id="path4-3-4-5-2-2-6-4"
       inkscape:path-effect="#path-effect4-3-8-8-6-5-4-3"
       inkscape:original-d="m 187.14578,104.58025 c 6.78693,-0.20688 16.92729,-1.44973 16.92729,-1.44973"
       sodipodi:nodetypes="cc"
       transform="translate(0.76222058,10.18835)" /><path
       style="fill:none;stroke:#000000;stroke-width:10;stroke-linecap:round;stroke-linejoin:bevel;stroke-dasharray:none;stroke-opacity:1"
       d="m 445.12389,301.72559 c 0,0 4.38804,-23.2986 4.16429,-34.42607 -0.21164,-10.52572 -2.57348,-25.50101 -4.16892,-32.90625"
       id="path1"
       sodipodi:nodetypes="csc" /><path
       style="opacity:1;fill:none;stroke:#000000;stroke-width:10;stroke-linecap:round;stroke-linejoin:bevel;stroke-dasharray:none;stroke-opacity:1"
       d="m 352.27114,427.66489 c 0,0 4.14918,-0.58007 7.2587,-1.9601 2.57362,-1.1422 5.80256,-4.22815 5.80256,-4.22815"
       id="path2"
       sodipodi:nodetypes="csc" /><path
       style="display:inline;opacity:1;fill:#000000;fill-rule:nonzero;stroke:none;stroke-width:2.8;stroke-linecap:round;stroke-linejoin:bevel;stroke-dasharray:none;stroke-opacity:1;paint-order:normal"
       d="m 164.50111,163.19799 c 0.41168,0.14476 2.04819,0.60986 3.45753,-1.36464 0.95031,-1.33141 2.13552,-3.96486 4.02234,-8.61349 1.34714,-3.31901 2.41778,-6.05151 3.76492,-9.37052 0.60206,-1.47923 1.20877,-2.94565 1.79223,-4.30676 0.55895,-1.30392 1.08737,-2.4897 1.56632,-3.49433 1.39347,-2.85827 3.09688,-6.03727 5.04774,-9.42401 1.87591,-3.25663 3.93272,-6.62189 6.06096,-9.93251 2.10687,-3.27736 4.24616,-6.44261 6.29121,-9.32158 2.08187,-2.93081 4.02814,-5.51167 5.72833,-7.607088 3.19035,-3.928409 5.62661,-6.627878 7.76621,-8.694308 0.37913,-0.366157 0.75717,-0.722501 1.13549,-1.070237 2.5213,-2.317423 4.93065,-4.142677 7.89133,-6.128959 2.90239,-1.946845 5.30708,-3.486427 7.73397,-4.730052 2.55428,-1.308903 5.00928,-2.221763 7.80749,-2.900246 0.62191,-0.154404 1.3492,-0.300787 2.12946,-0.438439 0.82638,-0.145787 1.70805,-0.281077 2.5813,-0.405814 2.01426,-0.287723 3.97832,-0.523184 5.54915,-0.734736 0.61114,-0.0823 1.1602,-0.159974 1.65762,-0.236739 4.16453,-0.642688 4.81072,-1.349657 4.80084,-1.633878 -0.008,-0.23727 -0.70891,-1.016883 -4.96893,-1.150598 -0.50672,-0.01591 -1.074,-0.02332 -1.69746,-0.02107 -1.5872,0.0057 -3.62726,0.07575 -5.7252,0.233926 -0.91134,0.06871 -1.84401,0.155067 -2.73712,0.261015 -0.83736,0.09933 -1.66198,0.21849 -2.40626,0.360608 -3.14072,0.608858 -5.95366,1.556176 -8.83861,2.955543 -2.69811,1.308741 -5.30842,2.936315 -8.25553,4.854506 -3.12261,2.032758 -5.73323,3.935415 -8.51843,6.367524 -0.41446,0.361916 -0.82815,0.731586 -1.24271,1.110194 -2.34352,2.14028 -5.05503,4.806194 -8.55633,8.649085 -1.91534,2.103924 -4.07291,4.671622 -6.3585,7.570332 -2.24685,2.84957 -4.59152,5.98641 -6.89996,9.24207 -2.33026,3.28643 -4.59536,6.65408 -6.6682,9.93369 -2.15231,3.40534 -4.06901,6.67062 -5.65314,9.66111 -0.60662,1.12843 -1.23602,2.41988 -1.85867,3.77525 -0.65427,1.42422 -1.31263,2.94422 -1.9441,4.46225 -1.4054,3.37857 -2.70985,6.82194 -3.69487,9.62218 -1.66735,4.73995 -2.45337,7.67745 -2.56942,9.26242 -0.17909,2.44594 1.40297,3.11553 1.809,3.2583 z"
       id="path3"
       sodipodi:nodetypes="cszzsc"
       inkscape:path-effect="#path-effect3"
       inkscape:original-d="m 164.50111,163.19799 c 0,0 7.17681,-20.4101 11.4307,-28.76507 6.10975,-12.00002 17.0123,-27.81968 24.35402,-36.346195 7.34172,-8.526514 11.74085,-12.168534 17.55525,-16.010153 5.8144,-3.841619 10.06567,-6.364402 16.3178,-7.720174 5.33577,-1.157059 17.12667,-1.566744 17.12667,-1.566744" /><path
       style="display:inline;fill:#000000;fill-rule:nonzero;stroke:none;stroke-width:2.8;stroke-linecap:round;stroke-linejoin:bevel;stroke-dasharray:none;stroke-opacity:1;paint-order:normal"
       d="m 265.01325,265.70478 c 0.0565,0.10661 0.10524,0.21363 0.15567,0.3319 0.0358,0.084 0.0904,0.21818 0.13399,0.30849 0.0418,0.0866 0.10337,0.20106 0.20167,0.29095 0.0479,0.0438 0.11288,0.0898 0.19919,0.12206 0.0832,0.0311 0.1929,0.0517 0.32374,0.0366 0.12908,-0.0149 0.26357,-0.0632 0.39153,-0.14852 0.12189,-0.0813 0.21954,-0.18387 0.29691,-0.28865 0.0734,-0.0993 0.1297,-0.20224 0.17298,-0.29368 0.0421,-0.0889 0.0767,-0.17759 0.10476,-0.25774 0.0533,-0.15243 0.0941,-0.30701 0.12373,-0.45054 0.0289,-0.13988 0.0501,-0.28357 0.0634,-0.43297 0.025,-0.28015 0.0231,-0.58927 -0.0122,-0.94086 -0.0328,-0.32646 -0.0944,-0.69016 -0.19015,-1.09855 -0.17511,-0.74657 -0.46384,-1.63978 -0.89536,-2.71707 -0.40622,-1.01416 -0.93576,-2.18343 -1.60957,-3.53735 -0.55481,-1.11481 -1.21931,-2.38817 -2.02142,-3.87917 -1.47063,-2.7337 -3.14697,-5.72892 -5.43116,-9.82915 -3.42935,-6.15583 -8.53333,-15.33376 -13.50715,-25.29729 -4.38054,-8.77505 -9.10058,-19.01903 -12.98892,-29.63343 -2.16367,-5.89208 -4.80848,-13.63407 -6.92551,-21.52828 -1.02906,-3.8373 -1.91865,-7.65205 -2.57596,-11.28013 -0.67002,-3.6982 -1.07838,-7.0911 -1.17662,-10.07249 -0.19084,-6.01052 -0.17997,-12.21733 0.0954,-17.70325 0.0477,-0.94999 0.10269,-1.89339 0.16552,-2.82472 0.2223,-3.29466 0.54066,-6.40623 0.97335,-9.10801 0.21382,-1.33513 0.4521,-2.54828 0.71413,-3.62047 0.26301,-1.07615 0.54022,-1.97009 0.82273,-2.68452 0.66968,-1.68641 1.63988,-3.77973 2.78056,-6.04572 1.16282,-2.30996 2.47254,-4.739953 3.78247,-7.050642 1.36985,-2.416377 2.71189,-4.653484 3.90485,-6.533324 0.6245,-0.984061 1.19707,-1.852914 1.71082,-2.601518 0.54255,-0.790578 0.98602,-1.398477 1.35274,-1.874868 0.31475,-0.423891 0.81889,-0.945088 1.46036,-1.521247 0.56291,-0.505588 1.20592,-1.031189 1.88243,-1.556835 0.13676,-0.106263 0.27579,-0.213397 0.417,-0.321374 1.7557,-1.342491 3.73422,-2.728504 5.60272,-4.028126 2.58404,-1.797318 4.3465,-3.016695 5.54329,-3.995735 1.12266,-0.918398 1.29904,-1.282986 1.23225,-1.427952 -0.0637,-0.138295 -0.46575,-0.258089 -1.8947,0.05542 -1.40018,0.307198 -3.71735,1.026668 -6.59421,2.188104 -2.13921,0.863634 -4.48347,1.93345 -6.56531,3.08443 -0.17017,0.09408 -0.33857,0.188698 -0.50498,0.283796 -0.81757,0.467226 -1.63624,0.970565 -2.3974,1.493171 -0.8426,0.578515 -1.68735,1.229995 -2.38525,1.92525 -0.59443,0.583678 -1.23036,1.301025 -1.90342,2.134719 -0.6471,0.801541 -1.33558,1.719545 -2.05539,2.736051 -1.37446,1.941012 -2.86466,4.243902 -4.35356,6.714796 -1.42502,2.364884 -2.84098,4.871234 -4.10384,7.276534 -1.2294,2.34157 -2.3262,4.61133 -3.12544,6.53855 -0.44724,1.08082 -0.82723,2.28871 -1.15501,3.5708 -0.32941,1.28848 -0.61483,2.68664 -0.8634,4.15716 -0.50166,2.96779 -0.86418,6.29654 -1.12621,9.71757 -0.0744,0.97195 -0.14093,1.95327 -0.20022,2.93808 -0.3449,5.72799 -0.516,11.98946 -0.53113,18.1896 -0.005,3.44873 0.33449,7.23745 0.92909,11.21331 0.58493,3.9112 1.41263,7.97469 2.38323,12.00544 2.00342,8.31998 4.58134,16.36437 6.79802,22.44241 4.03349,11.03374 8.93499,21.56394 13.49669,30.47768 5.26138,10.28094 10.48076,19.20853 14.28852,25.42432 2.38044,3.88583 4.45501,7.11356 6.07203,9.54469 0.93324,1.40309 1.75395,2.60115 2.45969,3.59993 0.86224,1.22025 1.62271,2.23151 2.27696,3.05096 0.69531,0.87089 1.27897,1.53569 1.75188,2.01847 0.25921,0.26461 0.48834,0.47781 0.68619,0.64074 0.21224,0.17478 0.39484,0.29703 0.54193,0.3589 0.0791,0.0333 0.15053,0.0503 0.214,0.0473 0.0676,-0.003 0.12631,-0.0285 0.18699,-0.086 0.0327,-0.031 0.0637,-0.0685 0.10295,-0.11944 0.036,-0.0467 0.0897,-0.11937 0.14847,-0.18501 0.0652,-0.0728 0.14695,-0.14963 0.24946,-0.20985 0.10795,-0.0634 0.21872,-0.0962 0.32084,-0.0999 0.10325,-0.004 0.18057,0.0227 0.22953,0.0549 0.0513,0.0337 0.0746,0.0746 0.0812,0.10977 0.0145,0.0771 -0.0394,0.13578 -0.1069,0.17361 -0.0752,0.0422 -0.17439,0.0616 -0.27317,0.0658 -0.11611,0.005 -0.23838,-0.0104 -0.35235,-0.038 z"
       id="path3-1"
       sodipodi:nodetypes="cszzsc"
       inkscape:path-effect="#path-effect3-3"
       inkscape:original-d="m 265.01325,265.70478 c 5.96471,4.63059 -23.26342,-34.82161 -38.43161,-76.27199 -4.62754,-12.64575 -10.20575,-31.22483 -10.39421,-44.27103 -0.18846,-13.04621 0.4037,-30.07563 3.32357,-37.25709 2.91987,-7.18146 10.62437,-20.449344 14.53655,-24.75336 3.96733,-4.36468 18.23995,-10.940721 18.23995,-10.940721"
       transform="translate(-106.25,42.628411)" /><path
       style="display:inline;opacity:1;fill:#000000;fill-rule:nonzero;stroke:none;stroke-width:2.8;stroke-linecap:round;stroke-linejoin:bevel;stroke-dasharray:none;stroke-opacity:1;paint-order:normal"
       d="m 186.64699,116.93972 c 0.34583,-0.81368 1.80748,-3.09394 2.075,-4.88211 0.28995,-1.93803 -0.30061,-4.09708 -0.62484,-6.38072 -0.10843,-0.76368 -0.24217,-1.57456 -0.3907,-2.40735 l 0.002,0.0435 c -0.30609,-1.59463 -0.70155,-3.29553 -1.03117,-4.794475 -0.41746,-1.898333 -1.06942,-4.51148 -1.2833,-5.413776 -0.14195,0.916371 -0.58548,3.572849 -0.85169,5.498223 -0.2102,1.520298 -0.47007,3.247128 -0.64926,4.860948 a 0.00198113,0.0314987 0.68013072 0 0 0.002,0.0435 c -0.0438,0.8448 -0.0756,1.66602 -0.0882,2.43726 -0.0377,2.30624 -0.35511,4.52197 0.17364,6.40889 0.48785,1.741 2.22177,3.82176 2.66612,4.58611 z"
       id="path4"
       inkscape:path-effect="#path-effect4"
       inkscape:original-d="M 186.64699,116.93972 185.80096,103.3885 185.3942,93.104789"
       sodipodi:nodetypes="ccc"
       transform="translate(12.359163,-13.225092)" /><path
       style="display:inline;fill:#000000;fill-rule:nonzero;stroke:none;stroke-width:2.8;stroke-linecap:round;stroke-linejoin:bevel;stroke-dasharray:none;stroke-opacity:1;paint-order:normal"
       d="m 186.64699,116.93972 c 0.34583,-0.81368 1.80748,-3.09394 2.075,-4.88211 0.28995,-1.93803 -0.30061,-4.09708 -0.62484,-6.38072 -0.10843,-0.76368 -0.24217,-1.57456 -0.3907,-2.40735 l 0.002,0.0435 c -0.30609,-1.59463 -0.70154,-3.29553 -1.03117,-4.794475 -0.41746,-1.898333 -1.06942,-4.51148 -1.2833,-5.413776 -0.14195,0.91637 -0.58548,3.572849 -0.85169,5.498223 -0.2102,1.520298 -0.47007,3.247118 -0.64926,4.860948 a 0.00198115,0.03149902 0.68013686 0 0 0.002,0.0435 c -0.0438,0.8448 -0.0756,1.66602 -0.0882,2.43726 -0.0377,2.30624 -0.35511,4.52197 0.17364,6.40889 0.48785,1.741 2.22177,3.82176 2.66612,4.58611 z"
       id="path4-9"
       inkscape:path-effect="#path-effect4-7"
       inkscape:original-d="M 186.64699,116.93972 185.80096,103.3885 185.3942,93.104789"
       sodipodi:nodetypes="ccc"
       transform="translate(0.00337479,-1.2597676)" /><path
       d="M 109.3942,109.10479"
       style="fill:#000000;fill-rule:nonzero;stroke:none;stroke-width:2.8;stroke-linecap:round;stroke-linejoin:bevel;stroke-dasharray:none;stroke-opacity:1;paint-order:normal"
       id="path1-5" /><path
       style="opacity:1;fill:none;stroke:#000000;stroke-width:10;stroke-linecap:round;stroke-linejoin:bevel;stroke-dasharray:none;stroke-opacity:1;paint-order:normal"
       d="m 275.90912,80.462195 c 0,0 10.07755,0.188128 14.83608,1.684105 4.75854,1.495977 9.97226,3.927191 14.23032,7.614498"
       id="path5"
       sodipodi:nodetypes="czc" /><path
       style="display:inline;fill:#000000;fill-rule:nonzero;stroke:none;stroke-width:2.8;stroke-linecap:round;stroke-linejoin:bevel;stroke-dasharray:none;stroke-opacity:1;paint-order:normal"
       d="m 182.33609,110.16353 c 0.34876,0.01 2.09255,0.0594 2.09255,0.0594 0,0 -0.0229,0.0127 -0.0349,-9.9e-4 -0.0649,-0.0739 -0.14086,-0.8699 -0.40858,-1.962 -0.15142,-0.61768 -0.34675,-1.29119 -0.58977,-2.01475 -0.29427,-0.87615 -0.62563,-1.7266 -0.93606,-2.43753 -0.20629,-0.47244 -0.44099,-0.98342 -0.69846,-1.51269 -0.67358,-1.38459 -1.36571,-2.612501 -1.89455,-3.374339 -0.53184,-0.766178 -0.74878,-0.851067 -0.83809,-0.813215 -0.0959,0.04065 -0.16881,0.24666 -0.0372,1.159322 0.12814,0.888752 0.42265,2.276162 0.6973,3.721092 0.10816,0.56904 0.20039,1.07789 0.28424,1.57083 0.12511,0.73548 0.26542,1.55893 0.366,2.394 0.0824,0.68424 0.12608,1.28003 0.12916,1.79055 0.006,0.91323 -0.12421,1.32773 -0.1893,1.36183 -0.0125,0.007 -0.0349,-9.9e-4 -0.0349,-9.9e-4 0,0 1.74379,0.0495 2.09255,0.0594 z"
       id="path4-3-6-96-6"
       inkscape:path-effect="#path-effect4-3-7-88-6"
       inkscape:original-d="m 182.33609,110.16353 c 0.11317,-3.98413 -3.30785,-12.056074 -3.30785,-12.056074"
       sodipodi:nodetypes="cc"
       transform="translate(-79.210285,165.57585)" /><path
       style="display:inline;fill:#000000;fill-rule:nonzero;stroke:none;stroke-width:2.8;stroke-linecap:round;stroke-linejoin:bevel;stroke-dasharray:none;stroke-opacity:1;paint-order:normal"
       d="m 182.7814,109.66255 c 0.34876,0.01 2.09255,0.0594 2.09255,0.0594 0,0 -0.0232,0.0146 -0.0349,-9.9e-4 -0.0479,-0.064 -0.0867,-0.61792 -0.33624,-1.31536 -0.12753,-0.35642 -0.29969,-0.73573 -0.53131,-1.14588 -0.38189,-0.67621 -0.89282,-1.37764 -1.51171,-2.09804 -0.60865,-0.70848 -1.28493,-1.39184 -1.9329,-1.99229 -0.14898,-0.13806 -0.29555,-0.27088 -0.43824,-0.39756 -0.51297,-0.45542 -1.08969,-0.94138 -1.72261,-1.44558 -1.42237,-1.1331 -2.87959,-2.159461 -4.01842,-2.866001 -1.532,-0.95048 -1.93343,-0.994642 -1.99907,-0.909473 l 0,0 c -0.0802,0.104069 0.10145,0.430007 1.29302,1.754908 0.92791,1.031746 2.03137,2.210426 3.20721,3.593256 0.5076,0.59696 0.95205,1.14288 1.34917,1.65425 0.10944,0.14093 0.22172,0.2867 0.33537,0.43631 0.50025,0.65851 0.994,1.34824 1.4049,2.02731 0.41876,0.69208 0.68553,1.26555 0.82148,1.71987 0.08,0.26754 0.1054,0.46345 0.10324,0.59757 -0.004,0.26402 -0.0895,0.26897 -0.13921,0.26981 -0.0121,2.1e-4 -0.0349,-9.9e-4 -0.0349,-9.9e-4 0,0 1.74379,0.0495 2.09255,0.0594 z"
       id="path4-3-6-96-6-9"
       inkscape:path-effect="#path-effect4-3-7-88-6-1"
       inkscape:original-d="m 182.7814,109.66255 c 0.11317,-3.98413 -10.43284,-12.111734 -10.43284,-12.111734"
       sodipodi:nodetypes="cc"
       transform="translate(-89.096352,162.67728)" /><path
       style="display:inline;fill:#000000;fill-rule:nonzero;stroke:none;stroke-width:2.8;stroke-linecap:round;stroke-linejoin:bevel;stroke-dasharray:none;stroke-opacity:1;paint-order:normal"
       d="m 183.33804,110.10787 c 0.29141,-0.19187 1.74844,-1.15119 1.74844,-1.15119 0,0 -0.0108,0.0249 -0.0291,0.0192 -0.10762,-0.0334 -0.76366,-0.84947 -1.86307,-1.67867 -0.62031,-0.46785 -1.32934,-0.92048 -2.12478,-1.35379 -0.96313,-0.52465 -1.94548,-0.96179 -2.79419,-1.28853 -0.56586,-0.21784 -1.18407,-0.43611 -1.84259,-0.64579 -1.48133,-0.47167 -2.90454,-0.81603 -3.97577,-0.99416 -0.56368,-0.0937 -0.97947,-0.13312 -1.26151,-0.13527 -0.16794,-0.001 -0.28462,0.0106 -0.36385,0.0296 -0.0473,0.0113 -0.0809,0.0251 -0.10437,0.0399 -0.0136,0.009 -0.0238,0.0174 -0.0314,0.0262 -0.004,0.005 -0.008,0.01 -0.0104,0.0147 -0.001,0.003 -0.003,0.005 -0.004,0.008 -0.003,0.008 -0.003,0.008 -0.003,0.008 -0.002,0.006 -0.002,0.007 -0.002,0.008 -5e-4,0.003 -8.7e-4,0.006 -0.001,0.009 -4.2e-4,0.006 -3.1e-4,0.0115 4.6e-4,0.018 0.001,0.0116 0.005,0.0246 0.0113,0.0392 0.0111,0.0253 0.0308,0.0553 0.063,0.0914 0.054,0.0605 0.14117,0.13575 0.27629,0.23225 0.23108,0.16503 0.57275,0.37166 1.06453,0.65054 0.89336,0.5066 2.2233,1.22134 3.45201,1.95109 0.57019,0.33864 1.08369,0.65769 1.55962,0.96756 0.71627,0.46635 1.50753,0.9997 2.25184,1.59305 0.60979,0.48613 1.09949,0.94261 1.4768,1.36912 0.67313,0.76093 0.82067,1.24117 0.7874,1.30483 -0.006,0.0123 -0.0292,0.0192 -0.0292,0.0192 0,0 1.45703,-0.95932 1.74844,-1.15119 z"
       id="path4-3-6-96-6-3"
       inkscape:path-effect="#path-effect4-3-7-88-6-2"
       inkscape:original-d="m 183.33804,110.10787 c -2.72143,-4.13332 -12.66126,-7.10208 -12.6594,-7.10198"
       sodipodi:nodetypes="cc"
       transform="translate(-100.59538,160.42925)" /><path
       style="display:inline;fill:#000000;fill-rule:nonzero;stroke:none;stroke-width:2.8;stroke-linecap:round;stroke-linejoin:bevel;stroke-dasharray:none;stroke-opacity:1;paint-order:normal"
       d="m 182.33609,110.16353 c 0.34876,0.01 2.09255,0.0594 2.09255,0.0594 0,0 -0.023,0.0195 -0.0349,-9.9e-4 -0.0406,-0.0698 -0.0664,-0.59878 -0.31724,-1.26671 -0.13029,-0.34694 -0.31175,-0.70314 -0.56343,-1.05682 -0.4166,-0.58544 -0.95835,-1.06943 -1.57554,-1.47078 -0.6011,-0.3909 -1.24737,-0.68588 -1.83648,-0.90219 -0.13626,-0.05 -0.26953,-0.0959 -0.3984,-0.13764 -0.46363,-0.15027 -0.9752,-0.28759 -1.52899,-0.40631 -1.24061,-0.26595 -2.48559,-0.39359 -3.42768,-0.40594 -1.27271,-0.0167 -1.54752,0.16359 -1.56247,0.26721 v 0 c -0.0194,0.13421 0.20146,0.30484 1.32954,0.8094 0.86167,0.38541 1.88844,0.82376 2.91776,1.3845 0.44734,0.24369 0.83221,0.47685 1.16741,0.70236 0.0925,0.0622 0.18638,0.12686 0.2805,0.19382 0.4182,0.29752 0.80043,0.61287 1.09122,0.94217 0.29478,0.33382 0.42963,0.60846 0.46758,0.80855 0.0221,0.11643 0.01,0.1987 -0.0101,0.25555 -0.0371,0.10535 -0.11321,0.16069 -0.14897,0.16593 -0.0125,0.002 -0.0349,-9.9e-4 -0.0349,-9.9e-4 0,0 1.74379,0.0495 2.09255,0.0594 z"
       id="path4-3-6-96-6-8"
       inkscape:path-effect="#path-effect4-3-7-88-6-3"
       inkscape:original-d="m 182.33609,110.16353 c 0.11317,-3.98413 -9.15257,-5.32073 -9.15257,-5.32073"
       sodipodi:nodetypes="cc"
       transform="translate(-113.61099,161.12455)" /><path
       style="opacity:1;fill:#c87137;fill-opacity:1;stroke:#000000;stroke-width:8;stroke-linecap:round;stroke-linejoin:round;stroke-dasharray:none;stroke-opacity:1;paint-order:normal;fill-rule:nonzero"
       d="m 87.322771,312.20664 c -0.268862,-2.46251 -1.348188,-3.78033 9.188914,-13.06765 4.639765,-2.0424 10.119275,-2.78412 18.003995,-1.28655 6.00322,2.06271 11.44655,5.26255 15.6885,12.4649 5.13708,6.1927 6.84977,12.38541 8.18696,18.57811 0.38089,9.82278 -3.12082,16.56625 -8.81672,21.5695 -4.20307,3.85731 -7.86494,4.64778 -11.17836,3.46371 -1.89848,-8.40245 -2.44591,-16.48701 -9.10459,-26.00951 -8.70158,-9.89053 -15.627839,-13.78939 -21.968699,-15.71251 z"
       id="path9"
       sodipodi:nodetypes="ccccccccc" /><path
       style="opacity:1;fill:#c87137;fill-opacity:1;stroke:#000000;stroke-width:8;stroke-linecap:round;stroke-linejoin:round;stroke-dasharray:none;stroke-opacity:1;paint-order:normal"
       d="M 109.52885,327.2758 C 95.348921,312.98358 87.05426,312.9454 82.993937,314.79844 c -8.08102,3.68799 -11.359266,9.80894 -15.030987,17.44929 -3.00034,7.56776 -1.584921,16.16035 0.392445,23.55657 3.944346,3.78573 9.443289,8.23774 18.369121,9.35156 5.492747,0.10007 11.19435,0.54196 20.707004,-3.95215 4.32631,-0.78336 9.46921,-6.21191 11.44844,-7.20139 2.23095,-1.11533 -6.11562,-23.93133 -10.94746,-28.42357"
       id="path10"
       sodipodi:nodetypes="csccccsc" /><path
       style="fill:#c87137;fill-opacity:1;fill-rule:nonzero;stroke:#000000;stroke-width:8;stroke-linecap:round;stroke-linejoin:round;stroke-dasharray:none;stroke-opacity:1;paint-order:normal"
       d="m 142.4674,364.20963 c -0.26886,-2.46251 -1.34818,-3.78033 9.18892,-13.06765 4.63976,-2.0424 10.11927,-2.78412 18.00399,-1.28655 6.00322,2.06271 11.44655,5.26255 15.6885,12.4649 5.13708,6.1927 6.84977,12.38541 8.18696,18.57811 0.38089,9.82278 -3.12082,16.56625 -8.81672,21.5695 -4.20307,3.85731 -7.86494,4.64778 -11.17836,3.46371 -1.89848,-8.40245 -2.44591,-16.48701 -9.10459,-26.00951 -8.70158,-9.89053 -15.62784,-13.78939 -21.9687,-15.71251 z"
       id="path9-1"
       sodipodi:nodetypes="ccccccccc" /><path
       style="fill:#c87137;fill-opacity:1;stroke:#000000;stroke-width:8;stroke-linecap:round;stroke-linejoin:round;stroke-dasharray:none;stroke-opacity:1;paint-order:normal"
       d="m 164.67348,379.27879 c -14.17993,-14.29222 -22.47459,-14.3304 -26.53491,-12.47736 -8.08102,3.68799 -11.35927,9.80894 -15.03099,17.44929 -3.00034,7.56776 -1.58492,16.16035 0.39245,23.55657 3.94434,3.78573 9.44329,8.23774 18.36912,9.35156 5.49275,0.10007 11.19435,0.54196 20.707,-3.95215 4.32631,-0.78336 9.46921,-6.21191 11.44844,-7.20139 2.23095,-1.11533 -6.11562,-23.93133 -10.94746,-28.42357"
       id="path10-0"
       sodipodi:nodetypes="csccccsc" /><path
       style="opacity:1;fill:#ffffff;fill-opacity:1;fill-rule:nonzero;stroke:none;stroke-width:8;stroke-linecap:round;stroke-linejoin:round;stroke-dasharray:none;stroke-opacity:1;paint-order:normal"
       d="m 356.02696,205.95681 c -23.51118,-22.90311 -18.55687,-46.06969 -17.14452,-51.32222 1.58143,-7.42298 10.92687,-32.05517 52.15323,-23.58242 l -11.02939,3.7041 c 45.68182,11.84489 43.72868,43.78501 41.92686,56.28259 -21.79155,31.64753 -51.33178,10.595 -52.32417,11.68943 l -6.01171,15.69726 z"
       id="path47"
       sodipodi:nodetypes="cccccccc" /><path
       style="opacity:1;fill:none;fill-opacity:1;fill-rule:nonzero;stroke:#000000;stroke-width:8;stroke-linecap:round;stroke-linejoin:round;stroke-dasharray:none;stroke-opacity:1;paint-order:normal"
       d="m 166.43537,346.89807 c 2.86971,-7.66162 0.62364,-12.31347 -4.67578,-29.83592 -1.49922,-4.88947 -10.55709,-16.07842 -17.81248,-14.47263 -13.12644,1.36575 -11.31165,7.33777 -13.35936,9.24022"
       id="path19"
       sodipodi:nodetypes="cccc" /><path
       style="opacity:1;fill:none;fill-opacity:1;fill-rule:nonzero;stroke:#000000;stroke-width:8;stroke-linecap:round;stroke-linejoin:round;stroke-dasharray:none;stroke-opacity:1;paint-order:normal"
       d="m 170.0369,409.97786 c 2.49086,1.87823 2.69861,3.21512 11.65067,9.13161 12.77796,9.39707 19.73471,9.23989 28.33949,11.80812"
       id="path22"
       sodipodi:nodetypes="ccc" /><path
       style="opacity:1;fill:none;fill-opacity:1;fill-rule:nonzero;stroke:#000000;stroke-width:8;stroke-linecap:round;stroke-linejoin:round;stroke-dasharray:none;stroke-opacity:1;paint-order:normal"
       d="m 160.9803,232.67553 c -0.73713,8.09096 -0.17498,10.11864 -0.11133,14.47264"
       id="path23"
       sodipodi:nodetypes="cc" /><path
       style="opacity:1;fill:none;fill-opacity:1;fill-rule:nonzero;stroke:#000000;stroke-width:8;stroke-linecap:round;stroke-linejoin:round;stroke-dasharray:none;stroke-opacity:1;paint-order:normal"
       d="m 179.23809,236.01537 c -11.46013,4.19081 -12.27549,6.67845 -17.03319,9.79686 -3.93726,6.48313 -9.4946,12.00247 -11.57811,24.04685 -0.56589,18.19725 0.0693,15.29871 0.55664,23.49021"
       id="path24"
       sodipodi:nodetypes="cccc" /><ellipse
       style="opacity:1;fill:#ffffff;fill-opacity:1;fill-rule:nonzero;stroke:none;stroke-width:8;stroke-linecap:round;stroke-linejoin:round;stroke-dasharray:none;stroke-opacity:1;paint-order:normal"
       id="path30"
       ry="13.894218"
       rx="15.547356"
       cy="174.79951"
       cx="222.42558" /><path
       style="opacity:1;fill:#c87137;fill-opacity:1;fill-rule:nonzero;stroke:#000000;stroke-width:8;stroke-linecap:round;stroke-linejoin:round;stroke-dasharray:none;stroke-opacity:1;paint-order:normal"
       d="m 219.39258,401.3994 c 0,-1.33594 8.16186,-26.22402 8.16186,-26.22402 4.72266,-9.71277 12.79764,-15.36747 23.15623,-18.2578 31.04651,-0.69614 51.11159,18.09085 60.11712,47.42573 l 1.55859,16.92186 -14.47264,20.03904 -7.79296,-0.89062 c -5.09239,-31.32862 -34.10996,-51.10068 -63.67962,-56.55463 l -16.6992,44.5312 c -3.21703,8.71909 -6.43338,17.43823 10.01952,27.38669 9.95963,2.41479 10.27134,4.69052 40.33894,2.85169 11.60407,-3.70262 19.92662,-12.20324 29.57505,-19.32823 -0.42937,-15.12437 -22.78976,-47.59918 -64.44214,-56.95055 z"
       id="path26"
       sodipodi:nodetypes="cccccccccccccc" /><path
       style="opacity:1;fill:#000000;fill-opacity:1;fill-rule:nonzero;stroke:none;stroke-width:8;stroke-linecap:round;stroke-linejoin:round;stroke-dasharray:none;stroke-opacity:1;paint-order:normal"
       d="m 219.90281,145.58208 c 6.63733,-0.87683 17.43935,-0.42907 18.3977,0.91415 L 231.754,121.70236 Z"
       id="path27"
       sodipodi:nodetypes="cccc" /><path
       style="opacity:1;fill:#000000;fill-opacity:1;fill-rule:nonzero;stroke:none;stroke-width:8;stroke-linecap:round;stroke-linejoin:round;stroke-dasharray:none;stroke-opacity:1;paint-order:normal"
       d="m 208.84625,183.89176 c 0.21202,-7.63121 2.83784,-14.01391 9.13161,-18.49939 8.97408,-3.17719 14.97895,2.28331 21.80566,5.35302 -2.83609,1.02725 -4.5671,3.43585 -8.89545,2.59778 -0.15176,6.00083 -2.18921,8.49965 -5.27429,9.05289 -4.50453,2.04179 -7.06883,1.06595 -9.76138,-0.31488 z"
       id="path28"
       sodipodi:nodetypes="ccccccc" /><ellipse
       style="opacity:1;fill:#ffffff;fill-opacity:1;fill-rule:nonzero;stroke:none;stroke-width:8;stroke-linecap:round;stroke-linejoin:round;stroke-dasharray:none;stroke-opacity:1;paint-order:normal"
       id="path29"
       ry="2.8339484"
       rx="2.3222632"
       cy="175.78352"
       cx="223.05534" /><path
       style="opacity:1;fill:#000000;fill-opacity:1;fill-rule:nonzero;stroke:none;stroke-width:8;stroke-linecap:round;stroke-linejoin:round;stroke-dasharray:none;stroke-opacity:1;paint-order:normal"
       d="m 257.59332,176.2058 c 1.11532,-5.56088 0.0725,-6.07397 -0.87432,-8.9483 -1.98685,-4.59566 -2.61532,-12.32311 -3.19812,-14.98992 -0.88845,-4.06547 3.32614,-23.56682 10.09033,-23.56682 -2.23736,4.50109 -2.47832,6.76189 -2.42221,8.34401 2.09882,7.28093 6.07046,16.3009 5.5529,21.15233 -3.22374,18.5223 -9.12331,17.23877 -9.14858,18.0087 z"
       id="path31"
       sodipodi:nodetypes="ccscccc" /><path
       style="opacity:1;fill:#000000;fill-opacity:1;fill-rule:nonzero;stroke:none;stroke-width:8;stroke-linecap:round;stroke-linejoin:round;stroke-dasharray:none;stroke-opacity:1;paint-order:normal"
       d="m 171.76561,189.60394 14.93145,2.21421 -6.72695,8.46325 z"
       id="path32"
       sodipodi:nodetypes="cccc" /><path
       style="opacity:1;fill:#000000;fill-opacity:1;fill-rule:nonzero;stroke:none;stroke-width:8;stroke-linecap:round;stroke-linejoin:round;stroke-dasharray:none;stroke-opacity:1;paint-order:normal"
       d="m 186.14486,208.03268 c 0,0 10.34907,2.37725 16.0268,0.92999 5.67773,-1.44727 -5.78906,5.78905 -14.02733,3.67382 -8.23827,-2.11523 -1.99947,-4.60381 -1.99947,-4.60381 z"
       id="path33"
       sodipodi:nodetypes="cssc" /><path
       style="opacity:1;fill:#000000;fill-opacity:1;fill-rule:nonzero;stroke:none;stroke-width:8;stroke-linecap:round;stroke-linejoin:round;stroke-dasharray:none;stroke-opacity:1;paint-order:normal"
       d="m 209.48496,221.25602 20.74135,4.96249 c 0,0 -10.46483,5.34374 -19.4824,2.67187 -9.01756,-2.67187 -1.25895,-7.63436 -1.25895,-7.63436 z"
       id="path34"
       sodipodi:nodetypes="ccsc" /><path
       style="opacity:1;fill:#000000;fill-opacity:1;fill-rule:nonzero;stroke:none;stroke-width:8;stroke-linecap:round;stroke-linejoin:round;stroke-dasharray:none;stroke-opacity:1;paint-order:normal"
       d="m 186.56827,284.96925 c -7.45738,1.15363 -8.5358,-53.05532 47.54735,-32.59041 1.15298,-2.30226 -1.36594,-7.35845 -2.32342,-11.24357 2.54327,0.70979 4.41306,3.03594 5.47225,7.30753 l 4.24302,-11.762 c 2.91821,8.10745 3.15767,17.2864 3.15674,26.56151 -65.27013,-23.316 -55.58926,14.76441 -49.60529,22.48713 z"
       id="path35"
       sodipodi:nodetypes="cccccccc" /><path
       style="opacity:1;fill:#000000;fill-opacity:1;fill-rule:nonzero;stroke:none;stroke-width:8;stroke-linecap:round;stroke-linejoin:round;stroke-dasharray:none;stroke-opacity:1;paint-order:normal"
       d="m 196.48709,270.64207 c -3.37354,5.4266 -5.89561,10.95964 0.0787,17.55473 0,0 10.78474,2.99139 10.78474,2.51907 0,-0.47233 7.00615,-6.45511 7.00615,-6.45511 57.07177,37.76024 71.19395,-8.4285 64.94465,-24.95449 -14.53645,34.93279 -35.03173,23.95037 -62.5043,16.84625 -6.25968,-0.82167 -12.62871,-2.29955 -17.16113,7.24231 z"
       id="path36"
       sodipodi:nodetypes="ccsccccc" /><path
       style="opacity:1;fill:#000000;fill-opacity:1;fill-rule:nonzero;stroke:none;stroke-width:8;stroke-linecap:round;stroke-linejoin:round;stroke-dasharray:none;stroke-opacity:1;paint-order:normal"
       d="m 271.06227,138.56612 c 1.70289,8.26406 4.58975,7.54993 -1.20319,36.88682 l 10.85925,19.30229 -11.65068,-11.65067 c 4.73755,10.12874 11.70841,20.25748 19.36531,30.38622 l -13.06765,-10.07627 25.82042,30.38623 -21.41205,-18.57811 30.54366,41.09225 -9.82659,-9.03938 c 26.81692,44.77583 51.22131,93.64316 28.56214,123.34197 -0.39729,-3.60735 19.50357,-37.29864 -16.06943,-61.7422 14.71958,15.29549 21.44362,35.84832 5.67829,71.18869 l 4.40836,-32.43296 -19.32247,31.80319 c 1.36427,8.92169 7.7349,19.84728 12.5795,28.76897 l 50.51173,-31.28803 c 6.01968,-12.02139 41.67328,-26.39488 22.3567,-85.64822 0.96311,75.15415 -35.01542,76.00331 -44.39852,91.94588 44.58537,-49.10018 34.46671,-52.69379 37.15621,-69.58917 l -9.13161,12.28044 c 6.92143,-23.04178 -13.61467,-51.44203 -26.45019,-69.58918 22.44778,41.59097 25.83327,76.48986 8.81673,104.22633 4.45018,-27.19406 11.98361,-51.74533 -40.61992,-127.84256 l 17.00369,6.61254 c -38.96169,-40.5387 -59.46352,-82.56911 -39.83272,-127.84256 z"
       id="path37"
       sodipodi:nodetypes="ccccccccccccccccccccccccccc" /><ellipse
       style="opacity:1;fill:#000000;fill-opacity:1;fill-rule:nonzero;stroke:none;stroke-width:8;stroke-linecap:round;stroke-linejoin:round;stroke-dasharray:none;stroke-opacity:1;paint-order:normal"
       id="path38"
       cx="391.71463"
       cy="179.4834"
       rx="23.143911"
       ry="22.199263" /><path
       style="opacity:1;fill:#000000;fill-opacity:1;fill-rule:nonzero;stroke:none;stroke-width:8;stroke-linecap:round;stroke-linejoin:round;stroke-dasharray:none;stroke-opacity:1;paint-order:normal"
       d="m 392.02952,130.99139 c -37.71544,10.67077 -63.50639,61.86981 12.28044,88.48216 16.74809,-12.36858 47.84454,-6.50771 16.37393,-80.13776 63.09684,66.94789 0.75548,75.07157 -12.28045,95.25216 74.84434,43.75124 -45.65542,194.56082 -95.78505,170.45983 76.20465,-33.14367 112.47277,-78.61807 86.02368,-145.58407 l 7.55719,8.50185 -17.31857,-39.67528 0.62977,9.13161 c -47.00533,-17.78746 -72.19917,-107.15632 2.51906,-106.4305 z"
       id="path39"
       sodipodi:nodetypes="cccccccccc" /><path
       style="opacity:1;fill:#000000;fill-opacity:1;fill-rule:nonzero;stroke:none;stroke-width:8;stroke-linecap:round;stroke-linejoin:round;stroke-dasharray:none;stroke-opacity:1;paint-order:normal"
       d="m 286.38622,238.2091 30.85855,55.41944 c -3.79598,-10.15466 -0.52202,-14.03007 -11.96556,-31.64576 -13.29453,-21.92795 -13.06862,-16.41255 -18.89299,-23.77368 z"
       id="path40"
       sodipodi:nodetypes="cccc" /><path
       style="opacity:1;fill:#000000;fill-opacity:1;fill-rule:nonzero;stroke:none;stroke-width:8;stroke-linecap:round;stroke-linejoin:round;stroke-dasharray:none;stroke-opacity:1;paint-order:normal"
       d="m 263.57688,353.83026 c -2.37001,-9.48267 -13.88888,-28.49885 19.50307,-56.42313 5.65242,-0.46785 20.22942,-16.69572 41.72202,13.53998 -9.51608,-6.7663 -17.2988,-16.00133 -40.1476,-3.7786 -12.89362,15.01294 -16.66207,32.10753 -9.40912,50.05851 z"
       id="path41"
       sodipodi:nodetypes="cccccc" /><path
       style="opacity:1;fill:#000000;fill-opacity:1;fill-rule:nonzero;stroke:none;stroke-width:8;stroke-linecap:round;stroke-linejoin:round;stroke-dasharray:none;stroke-opacity:1;paint-order:normal"
       d="m 286.11298,362.26133 c -6.35669,-6.46736 -6.37257,-12.82073 4.45311,-15.14061 9.54646,-0.58493 12.49149,12.81396 5.90039,24.15818 z"
       id="path42"
       sodipodi:nodetypes="cccc" /><path
       style="opacity:1;fill:#ffffff;fill-opacity:1;fill-rule:nonzero;stroke:none;stroke-width:8;stroke-linecap:round;stroke-linejoin:round;stroke-dasharray:none;stroke-opacity:1;paint-order:normal"
       d="m 208.45264,288.90529 6.14023,-4.40836 c 12.68594,4.86901 24.65205,14.41688 38.10086,14.32718 l 4.72324,7.39975 -14.7995,-6.29766 c 9.17817,8.09585 15.91222,17.96924 15.9016,32.74785 -2.08637,-2.77335 -1.64688,-2.4796 -9.13162,-11.80812 5.4126,11.36665 6.96939,22.01033 5.6679,32.11808 -17.51428,-0.72358 -28.71099,17.6121 -35.42435,32.11808 -12.15507,-27.1793 -7.34727,-33.43009 -11.96556,-49.59409 l -5.98278,28.49692 c -0.53626,-15.41712 -8.50859,-10.55406 -0.78721,-48.492 3.86487,-9.26174 12.82875,-20.01068 7.55719,-26.60763 z"
       id="path44"
       sodipodi:nodetypes="ccccccccccccc" /><path
       style="opacity:1;fill:#ffffff;fill-opacity:1;fill-rule:nonzero;stroke:none;stroke-width:8;stroke-linecap:round;stroke-linejoin:round;stroke-dasharray:none;stroke-opacity:1;paint-order:normal"
       d="m 324.85512,311.16177 c -14.78606,-15.09046 -27.66667,-10.3098 -40.41207,-4.11913 -17.91569,21.43633 -14.10893,35.42504 -9.68553,49.3183 l 5.78905,2.67188 c 4.90527,-23.14787 10.45008,-28.96069 24.04685,-46.53511 l -12.35741,5.78906 c 9.13624,-6.53091 15.69466,-19.23016 32.61911,-7.125 z"
       id="path45"
       sodipodi:nodetypes="ccccccc" /><path
       style="opacity:1;fill:#ffffff;fill-opacity:1;fill-rule:nonzero;stroke:none;stroke-width:8;stroke-linecap:round;stroke-linejoin:round;stroke-dasharray:none;stroke-opacity:1;paint-order:normal"
       d="M 399.66754,89.953028 C 356.73503,56.418214 303.11672,78.603499 288.33953,120.4569 271.21117,183.55605 310.00104,211.25074 331.5348,240.02318 285.04305,167.54182 289.83516,152.82636 298.1364,127.35924 325.04676,64.848455 390.69355,85.940207 399.66754,89.953028 Z"
       id="path46"
       sodipodi:nodetypes="ccccc" /></g></svg>
